<?xml version="1.0" standalone="no"?>
<!DOCTYPE svg PUBLIC "-//W3C//DTD SVG 20010904//EN"
 "http://www.w3.org/TR/2001/REC-SVG-20010904/DTD/svg10.dtd">
<svg version="1.0" xmlns="http://www.w3.org/2000/svg"
 width="2027.000000pt" height="2027.000000pt" viewBox="0 0 2027.000000 2027.000000"
 preserveAspectRatio="xMidYMid meet">
<metadata>
Created by potrace 1.11, written by Peter Selinger 2001-2013
</metadata>
<g transform="translate(0.000000,2027.000000) scale(0.100000,-0.100000)"
fill="#000000" stroke="none">
<path d="M17139 15389 c-8 -5 -21 -6 -30 -4 -9 3 -29 0 -45 -6 -16 -7 -44 -12
-61 -12 -18 0 -33 -3 -33 -8 0 -4 -9 -6 -20 -4 -11 2 -22 -1 -26 -6 -3 -6 -12
-5 -22 3 -12 10 -14 10 -8 1 5 -9 0 -13 -13 -13 -12 0 -21 -4 -21 -10 0 -5 -7
-10 -16 -10 -9 0 -28 -6 -42 -14 -36 -19 -120 -56 -128 -56 -3 0 -18 -9 -33
-19 -15 -11 -34 -21 -42 -23 -8 -2 -24 -13 -36 -26 -13 -13 -23 -20 -23 -17 0
4 -10 -6 -23 -22 -74 -90 -101 -126 -90 -120 7 5 6 -4 -4 -23 -10 -22 -20 -30
-32 -26 -11 4 -10 1 4 -9 16 -12 17 -18 7 -24 -8 -5 -13 -12 -12 -17 1 -5 -4
-10 -10 -12 -9 -3 -9 1 -1 17 7 11 10 21 9 22 -35 12 -138 -5 -138 -23 0 -17
-29 -7 -35 12 -4 11 -10 18 -14 15 -4 -2 -14 7 -21 20 -7 14 -19 25 -27 25 -7
0 -13 5 -13 10 0 6 -7 10 -15 10 -8 0 -15 7 -15 16 0 10 -5 14 -16 10 -8 -3
-13 -2 -10 3 3 5 -1 12 -10 15 -9 4 -14 9 -11 12 3 3 -2 14 -11 24 -32 35 -40
47 -46 68 -4 12 -11 20 -16 17 -5 -3 -10 0 -12 7 -4 12 -188 19 -188 7 0 -10
-100 4 -121 17 -8 4 -9 3 -5 -4 9 -15 5 -15 -29 -2 -19 7 -24 7 -19 -1 5 -8
-6 -10 -35 -7 -22 2 -41 0 -41 -4 0 -11 -23 -5 -32 7 -5 6 -8 5 -8 -3 0 -10
-4 -10 -22 0 -13 7 -27 11 -33 9 -26 -8 -55 -7 -55 2 0 6 -5 6 -12 -1 -7 -5
-34 -10 -59 -9 -25 0 -51 -3 -57 -7 -7 -4 -12 -3 -12 2 0 5 -14 8 -30 7 -17
-1 -33 1 -36 6 -3 5 -13 5 -24 -1 -25 -13 -33 -13 -24 3 6 9 5 9 -7 1 -16 -14
-117 -16 -172 -4 -21 4 -40 4 -43 -1 -3 -5 -10 -9 -15 -9 -6 0 -7 6 -3 13 6 9
4 9 -7 1 -9 -7 -46 -10 -99 -8 -47 2 -101 3 -120 3 -19 -1 -50 -2 -67 -2 -18
0 -33 -5 -33 -10 0 -6 -5 -6 -12 0 -7 6 -30 9 -50 9 -21 -1 -38 2 -38 6 0 7
-34 3 -50 -7 -6 -3 -10 0 -10 7 0 8 -3 9 -8 2 -6 -8 -141 -12 -149 -4 -8 8
-49 4 -55 -5 -5 -6 -8 -5 -8 3 0 8 -5 10 -12 6 -15 -9 -168 -12 -168 -3 0 3
-21 4 -47 2 -98 -8 -184 -9 -188 -2 -3 4 -26 5 -52 3 -43 -4 -74 -4 -223 -3
-25 0 -74 0 -110 -1 -36 0 -93 1 -127 3 -35 2 -63 1 -63 -2 0 -3 -20 -6 -45
-7 -25 0 -45 2 -45 5 0 9 -143 7 -157 -2 -8 -5 -13 -3 -13 4 0 8 -4 8 -12 1
-16 -13 -20 -13 -57 -2 -19 5 -33 4 -40 -3 -8 -8 -11 -8 -11 1 0 14 -92 12
-102 -3 -5 -6 -8 -5 -8 3 0 10 -5 10 -21 1 -16 -8 -20 -8 -14 1 6 9 3 9 -12 1
-11 -6 -23 -8 -26 -5 -12 12 -157 13 -157 1 0 -8 -3 -7 -9 2 -7 10 -13 11 -31
1 -13 -7 -25 -8 -29 -3 -7 10 -43 9 -61 -2 -8 -5 -11 -4 -6 3 8 13 -90 14
-116 0 -10 -5 -18 -4 -20 4 -3 8 -10 8 -26 -1 -15 -8 -22 -8 -22 -1 0 7 -6 8
-18 1 -11 -6 -24 -6 -34 0 -18 10 -158 6 -176 -5 -6 -3 -13 -2 -17 4 -3 5 -11
10 -16 10 -6 0 -7 -5 -3 -11 4 -7 -3 -6 -17 2 -28 15 -130 12 -157 -5 -6 -4
-12 -4 -12 1 0 4 -14 8 -30 9 -17 1 -30 -3 -30 -9 0 -5 -7 -4 -16 4 -14 12
-29 12 -140 4 -17 -1 -37 -6 -44 -10 -8 -5 -11 -4 -7 2 4 6 -7 10 -26 11 -18
1 -48 2 -67 2 -48 2 -125 -6 -138 -14 -6 -3 -13 -2 -17 4 -6 10 -14 11 -100 9
-91 -1 -189 0 -232 3 -25 2 -43 -1 -43 -7 0 -5 -5 -3 -10 5 -5 8 -10 10 -10 4
0 -6 -15 -9 -35 -8 -26 2 -34 0 -28 -9 4 -7 0 -6 -10 2 -10 8 -20 11 -24 8 -3
-4 -12 -2 -20 4 -10 9 -13 8 -13 -1 0 -8 -4 -9 -12 -3 -7 5 -31 8 -53 6 -22
-2 -74 -3 -115 -3 -41 1 -90 2 -107 2 -18 0 -33 6 -33 12 0 6 -4 6 -9 -2 -8
-14 -89 -23 -201 -24 -68 0 -107 7 -128 24 -12 10 -14 10 -8 1 4 -7 2 -13 -3
-13 -6 0 -11 5 -11 10 0 6 -3 10 -7 9 -16 -2 -53 14 -53 23 0 6 -6 8 -13 5 -8
-3 -20 3 -27 13 -8 11 -17 17 -22 14 -4 -3 -19 5 -32 18 -67 62 -114 81 -143
56 -9 -7 -13 -7 -13 1 0 7 -5 9 -12 4 -17 -10 -76 -10 -105 -1 -15 5 -23 3
-23 -3 0 -7 -6 -6 -17 2 -14 12 -16 12 -8 0 6 -11 2 -13 -19 -9 -14 3 -26 1
-26 -4 0 -5 -3 -7 -8 -4 -4 2 -16 -2 -27 -10 -10 -8 -15 -14 -9 -14 5 0 -20
-14 -55 -30 -36 -17 -71 -28 -78 -26 -8 3 -12 2 -9 -3 3 -5 -16 -12 -42 -16
-61 -11 -172 -13 -172 -4 0 3 -22 6 -49 6 -27 -1 -48 -4 -46 -7 5 -8 -107 -4
-129 5 -14 6 -17 5 -11 -4 6 -10 3 -11 -12 -3 -10 6 -39 8 -63 6 -48 -5 -108
-5 -205 0 -33 2 -64 1 -70 -2 -5 -3 -23 -5 -40 -4 -158 9 -205 9 -205 -2 0 -6
-5 -4 -10 4 -7 11 -12 12 -21 3 -7 -7 -19 -9 -34 -3 -14 5 -27 4 -34 -3 -8 -8
-11 -8 -11 2 0 7 -6 11 -12 8 -7 -2 -22 -1 -33 3 -11 4 -26 3 -32 -2 -9 -7
-13 -6 -13 3 0 11 -2 11 -10 -1 -5 -8 -12 -11 -16 -8 -4 4 -15 3 -25 -3 -14
-7 -19 -6 -19 3 0 9 -3 9 -10 -2 -5 -8 -10 -10 -10 -5 0 6 -19 11 -42 12 -24
0 -59 1 -78 2 -19 0 -60 -1 -90 -3 -31 -2 -61 1 -69 8 -11 8 -13 8 -7 -1 4 -8
1 -13 -8 -13 -9 0 -16 6 -16 13 0 7 -3 8 -8 2 -9 -12 -42 -16 -42 -5 0 5 -10
6 -22 2 -16 -4 -19 -2 -14 9 5 9 3 9 -6 -2 -10 -11 -32 -15 -94 -14 -44 1 -84
4 -90 6 -5 3 -20 4 -34 2 -67 -8 -156 -8 -167 0 -9 6 -13 5 -13 -3 0 -9 -4 -9
-13 -2 -6 6 -30 8 -52 5 -66 -8 -155 -8 -155 -1 0 4 -11 5 -25 2 -14 -2 -25 0
-25 6 0 7 -5 8 -12 3 -26 -15 -83 -18 -216 -11 -51 3 -94 2 -97 -2 -2 -4 -17
-6 -32 -3 -16 2 -55 4 -88 6 -33 1 -63 6 -66 11 -4 5 -17 2 -29 -7 -16 -11
-28 -13 -40 -7 -10 5 -20 6 -24 3 -10 -10 -46 -11 -46 -2 0 5 -7 6 -15 3 -9
-4 -15 0 -15 7 0 9 -3 10 -8 4 -4 -5 -20 -10 -37 -10 -16 0 -33 5 -37 10 -5 6
-8 6 -8 -1 0 -7 -15 -11 -36 -10 -20 1 -38 -2 -41 -6 -2 -5 -10 -5 -16 -1 -6
4 -25 8 -42 9 -16 1 -32 2 -35 4 -12 6 -36 5 -52 -3 -12 -5 -18 -4 -18 5 0 10
-2 10 -9 -1 -5 -8 -19 -12 -35 -9 -14 3 -26 1 -26 -4 0 -5 -6 -6 -12 -2 -7 5
-24 8 -38 8 -14 0 -28 4 -32 10 -5 7 -8 7 -8 -2 0 -8 -5 -10 -12 -5 -18 10
-42 10 -50 -1 -4 -6 -12 -5 -20 2 -11 9 -17 9 -27 -1 -9 -9 -14 -9 -21 3 -8
12 -10 11 -10 -5 0 -17 -2 -17 -10 -5 -9 13 -10 13 -11 0 0 -10 -3 -8 -9 5 -5
11 -9 15 -9 9 -1 -14 -61 -13 -61 1 0 5 -5 3 -10 -5 -7 -10 -10 -11 -10 -2 0
12 -38 11 -60 -3 -5 -3 -10 0 -10 7 0 9 -3 9 -8 2 -8 -13 -111 -13 -131 0 -10
7 -12 6 -6 -4 6 -9 4 -11 -6 -5 -19 12 -71 13 -86 2 -9 -6 -13 -5 -13 4 0 12
-2 12 -9 0 -6 -9 -11 -10 -15 -2 -4 6 -13 8 -19 4 -16 -10 -77 -12 -77 -3 0 9
-127 6 -136 -3 -4 -4 -15 -2 -25 3 -10 6 -20 6 -23 2 -6 -10 -36 -9 -53 1 -6
4 -15 3 -18 -3 -4 -7 -11 -8 -18 -2 -15 12 -66 12 -73 0 -3 -5 -12 -4 -20 3
-8 6 -14 7 -14 2 0 -12 -31 -13 -47 -1 -7 5 -14 5 -18 -2 -3 -6 -12 -7 -18 -3
-7 4 -36 8 -65 10 -39 2 -51 -1 -45 -10 5 -9 3 -9 -9 0 -8 7 -18 10 -21 6 -8
-7 -77 -10 -77 -3 0 3 -9 6 -20 6 -11 0 -20 -4 -20 -8 0 -4 -12 0 -27 7 -15 8
-30 11 -33 7 -3 -4 -24 -7 -48 -7 -23 0 -42 -3 -42 -6 0 -3 -10 -5 -22 -3 -13
1 -23 3 -23 4 0 3 -58 9 -95 9 -83 1 -140 -5 -140 -13 0 -5 -6 -5 -12 0 -7 5
-22 9 -33 9 -11 0 -23 4 -27 10 -5 6 -11 5 -18 -5 -6 -10 -10 -11 -10 -3 0 7
-6 10 -12 8 -7 -3 -34 -6 -59 -9 -26 -2 -52 -7 -58 -10 -6 -4 -11 -3 -11 1 0
9 -11 11 -95 12 -77 1 -129 -3 -142 -12 -7 -5 -13 -4 -13 1 0 5 -7 9 -15 9 -8
0 -15 -6 -15 -13 0 -7 -8 -19 -17 -26 -10 -7 -19 -20 -21 -28 -2 -8 -28 -38
-58 -66 -30 -29 -54 -58 -54 -67 0 -8 -11 -22 -24 -33 -14 -10 -23 -21 -21
-24 2 -4 -11 -22 -30 -40 -19 -19 -35 -28 -35 -21 0 32 -53 121 -101 170 -61
60 -145 118 -186 127 -38 8 -103 37 -103 47 0 4 -6 7 -12 7 -7 0 -26 7 -41 15
-45 23 -110 27 -297 16 -180 -10 -220 -15 -252 -32 -10 -5 -18 -6 -18 -2 0 7
-50 9 -57 3 -4 -3 -20 -7 -34 -9 -5 0 -7 -6 -3 -13 4 -6 3 -8 -3 -5 -14 9 -85
-12 -78 -23 3 -6 -1 -7 -9 -4 -9 3 -16 1 -16 -6 0 -6 -3 -9 -7 -7 -15 9 -54
-13 -47 -24 4 -8 3 -9 -5 -5 -6 4 -25 -2 -41 -14 -17 -12 -30 -19 -30 -17 0 3
-15 -9 -34 -26 -28 -26 -32 -35 -23 -47 6 -8 1 -6 -11 5 -13 11 -23 15 -22 10
5 -21 0 -36 -10 -30 -5 3 -10 -3 -10 -15 0 -12 -4 -19 -8 -16 -5 3 -16 -8 -26
-25 -9 -16 -21 -29 -27 -29 -5 0 -9 -5 -9 -11 0 -5 6 -7 12 -4 7 4 4 -1 -7
-10 -11 -9 -18 -24 -17 -33 2 -9 1 -14 -4 -10 -12 12 -34 -25 -23 -39 7 -7 6
-14 -2 -19 -8 -5 -10 -3 -4 7 6 10 5 11 -4 3 -6 -6 -13 -25 -16 -43 -2 -18
-10 -40 -17 -49 -11 -13 -11 -15 2 -7 13 7 13 6 2 -7 -10 -13 -10 -17 0 -21
10 -4 10 -6 -1 -6 -11 -1 -11 -4 0 -18 12 -15 12 -16 -3 -10 -13 4 -16 2 -11
-11 3 -9 9 -21 13 -27 6 -9 6 -31 0 -37 -6 -8 -5 -66 2 -62 4 3 8 0 8 -5 0 -6
-6 -11 -12 -11 -10 0 -10 -2 0 -9 7 -4 12 -12 11 -17 -1 -5 3 -22 10 -38 8
-21 9 -32 1 -40 -8 -8 -9 -6 -5 5 8 20 -10 35 -21 18 -4 -8 -3 -9 4 -5 7 4 12
2 12 -3 0 -6 -6 -11 -12 -11 -7 0 -5 -5 5 -11 9 -5 22 -7 27 -4 6 4 7 -1 3
-11 -5 -13 -3 -15 7 -9 9 5 11 4 6 -3 -5 -9 -13 -9 -26 -2 -16 8 -18 8 -14 -5
6 -14 18 -19 37 -16 5 1 6 -3 2 -9 -3 -6 -11 -8 -16 -5 -11 7 -7 -24 5 -44 6
-9 5 -12 -1 -8 -14 9 -6 -122 9 -141 11 -13 11 -15 -2 -7 -9 5 -8 0 4 -13 11
-12 16 -22 13 -22 -3 0 2 -19 13 -42 12 -27 15 -45 9 -49 -7 -4 -4 -9 5 -12 9
-4 15 -3 13 1 -1 4 2 8 7 10 6 1 11 -4 12 -12 1 -10 -6 -13 -25 -11 -14 2 -20
2 -13 -1 6 -3 12 -12 12 -19 0 -7 6 -15 13 -18 9 -4 9 -7 0 -18 -21 -22 -14
-33 8 -13 11 10 20 14 19 9 -5 -23 1 -36 12 -29 9 5 9 2 -1 -9 -11 -14 -11
-17 0 -17 8 0 5 -6 -7 -15 -16 -13 -16 -14 -2 -9 10 3 18 1 18 -4 0 -6 9 -14
20 -17 11 -3 20 -13 20 -20 0 -8 5 -17 12 -21 6 -4 8 -3 5 3 -4 6 1 17 11 24
15 12 16 12 4 -2 -10 -14 -10 -18 3 -23 9 -3 13 -2 10 3 -3 5 -1 12 5 16 6 4
8 11 5 16 -4 5 -1 9 4 9 6 0 11 -5 11 -11 0 -5 6 -7 13 -3 6 4 4 -2 -6 -13
-19 -22 -24 -44 -5 -25 7 7 17 12 23 12 5 0 3 -5 -5 -10 -10 -6 -11 -10 -2
-10 6 0 12 -5 12 -11 0 -5 -5 -7 -11 -3 -7 4 -10 1 -7 -7 3 -8 10 -13 15 -12
5 1 9 -17 8 -39 -1 -25 4 -42 12 -45 7 -3 12 -13 11 -22 -2 -9 3 -15 10 -13 8
1 11 -2 7 -8 -3 -6 -10 -8 -15 -5 -4 3 -10 -2 -13 -10 -4 -9 -1 -12 7 -9 7 3
18 -5 24 -18 6 -13 11 -17 11 -10 1 8 7 6 19 -6 20 -20 36 -52 33 -66 -1 -4 6
-14 16 -22 11 -8 13 -13 6 -14 -7 0 -13 -5 -13 -11 0 -5 4 -8 9 -5 12 8 58
-47 55 -66 -1 -9 5 -19 13 -23 14 -5 13 -8 -2 -25 -19 -21 -7 -28 13 -8 9 9
12 9 13 -3 1 -7 1 -18 0 -22 -1 -4 8 -17 19 -29 22 -24 26 -38 10 -38 -16 0
-7 -24 15 -37 15 -9 16 -12 5 -13 -12 0 -12 -3 2 -11 14 -8 15 -15 8 -35 -7
-18 -7 -23 1 -18 6 3 17 -3 25 -15 8 -12 20 -21 27 -21 8 0 8 3 -1 12 -7 7
-12 17 -12 22 1 13 23 -24 26 -41 1 -7 -2 -13 -7 -13 -5 0 -9 -5 -9 -11 0 -5
4 -8 8 -5 10 6 9 -25 -2 -42 -4 -6 -5 -12 -1 -12 3 0 1 -9 -5 -19 -7 -13 -7
-22 0 -26 5 -3 10 -1 10 6 0 19 10 5 15 -21 4 -22 4 -22 -15 -5 -18 16 -20 17
-20 2 0 -10 3 -16 8 -15 14 3 42 -14 36 -23 -3 -5 0 -9 7 -9 8 0 8 -4 1 -13
-7 -8 -7 -18 -2 -27 5 -8 5 -21 1 -29 -4 -9 -7 -23 -6 -31 1 -8 -2 -20 -6 -25
-10 -14 -7 -55 3 -49 4 3 8 1 8 -5 0 -5 -4 -12 -8 -15 -10 -6 -8 -73 2 -83 4
-4 5 5 2 20 -2 14 -1 29 4 32 11 7 22 -10 13 -19 -3 -3 -8 -17 -9 -31 -2 -17
1 -23 9 -18 9 5 8 2 0 -9 -7 -8 -10 -17 -8 -20 10 -10 14 -49 4 -43 -5 4 -6
12 -2 18 4 7 -2 5 -13 -3 -29 -22 -30 -24 -12 -17 21 7 33 -20 16 -40 -10 -12
-9 -14 7 -11 14 2 18 -4 20 -29 1 -18 -3 -33 -8 -33 -5 0 -3 -7 4 -17 8 -9 13
-18 12 -20 -2 -1 -3 -4 -2 -5 6 -19 3 -46 -4 -41 -7 4 -8 -1 -3 -13 4 -10 4
-15 0 -11 -4 4 -16 -1 -26 -10 -11 -10 -19 -13 -18 -8 5 25 -2 28 -13 5 -8
-14 -19 -24 -27 -22 -7 2 -10 -3 -7 -12 4 -9 2 -18 -4 -21 -5 -4 -7 -10 -4
-15 3 -4 -2 -11 -11 -14 -8 -3 -12 -11 -8 -17 5 -8 3 -9 -5 -5 -8 5 -12 3 -10
-5 3 -27 -1 -40 -11 -34 -5 3 -10 2 -10 -4 0 -5 6 -12 13 -14 9 -4 9 -6 -1 -6
-7 -1 -10 -6 -6 -13 4 -6 3 -8 -3 -5 -6 4 -16 0 -23 -8 -10 -12 -10 -18 0 -30
9 -10 9 -15 1 -15 -6 0 -11 5 -11 11 0 5 -4 7 -10 4 -6 -3 -7 1 -4 9 3 9 1 16
-5 16 -6 0 -12 -8 -13 -17 0 -10 -2 -22 -3 -28 -2 -5 -3 -16 -4 -23 0 -7 -5
-11 -9 -8 -5 3 -8 -13 -7 -34 1 -22 -2 -40 -7 -40 -4 0 -8 -5 -8 -11 0 -5 5
-7 10 -4 6 3 10 1 10 -5 0 -6 5 -8 10 -5 7 4 6 13 -1 27 -6 11 -7 18 -1 14 5
-3 9 5 9 17 1 47 3 57 15 57 6 0 8 -3 5 -7 -4 -3 -2 -12 5 -20 9 -11 7 -12 -8
-6 -17 6 -17 5 -5 -10 10 -13 10 -17 1 -17 -9 0 -9 -4 1 -17 12 -14 12 -16 0
-9 -9 6 -12 5 -9 -5 3 -8 -1 -22 -10 -31 -12 -14 -12 -18 -2 -18 9 0 7 -5 -5
-14 -11 -8 -22 -13 -25 -11 -3 2 -12 -5 -19 -17 -7 -11 -8 -17 -2 -13 19 11
12 -14 -9 -35 -25 -25 -25 -31 -2 -24 9 3 6 -2 -8 -10 -19 -11 -21 -15 -8 -16
9 0 20 -5 24 -12 4 -7 3 -8 -4 -4 -7 4 -12 1 -12 -6 0 -10 -3 -9 -11 2 -9 12
-10 11 -6 -7 3 -12 1 -23 -5 -25 -5 -2 -10 -11 -12 -20 -1 -10 -5 -21 -9 -24
-12 -13 -8 -36 6 -28 6 4 3 -3 -8 -16 -11 -13 -14 -20 -5 -15 8 5 5 -3 -7 -18
-12 -15 -20 -38 -18 -52 1 -14 -2 -25 -8 -25 -5 0 -7 -9 -4 -20 3 -11 2 -18
-2 -15 -5 2 -26 -21 -47 -53 -21 -31 -45 -62 -53 -68 -8 -7 -11 -16 -6 -24 5
-8 4 -11 -2 -7 -6 4 -17 -1 -24 -10 -8 -9 -9 -14 -3 -10 7 4 14 0 18 -8 3 -8
1 -15 -4 -15 -6 0 -10 -7 -10 -15 0 -8 -5 -15 -10 -15 -7 0 -7 7 0 21 11 19
10 20 -10 9 -11 -6 -18 -15 -15 -20 3 -4 -6 -18 -21 -29 -14 -11 -23 -25 -19
-31 3 -5 1 -10 -4 -10 -6 0 -11 -6 -11 -12 0 -20 -56 -98 -64 -90 -4 3 -4 -1
0 -11 5 -13 2 -16 -12 -11 -16 5 -16 4 -4 -5 13 -9 12 -11 -4 -11 -13 0 -17
-5 -13 -19 4 -15 0 -18 -20 -16 -14 1 -29 -5 -37 -16 -7 -11 -15 -17 -18 -14
-2 3 -4 -4 -3 -15 1 -11 5 -23 10 -27 4 -5 4 -1 0 7 -8 13 -7 13 8 1 10 -8 17
-9 17 -3 0 6 -4 13 -10 17 -5 3 -6 13 -3 21 5 13 7 13 14 2 7 -11 9 -10 9 1 0
8 3 12 6 8 12 -12 65 23 62 41 -2 9 3 17 10 18 25 3 27 5 12 14 -8 5 -10 10
-5 10 6 0 16 -4 23 -9 11 -7 10 -9 -3 -15 -9 -3 -13 -11 -9 -17 5 -8 3 -9 -6
-4 -10 6 -12 4 -7 -9 4 -10 3 -15 -3 -11 -16 10 -25 -26 -9 -37 11 -8 10 -9
-3 -4 -10 3 -20 1 -23 -4 -4 -6 -1 -10 5 -10 6 0 8 -5 5 -11 -4 -6 -14 -8 -22
-4 -12 4 -13 2 -6 -7 18 -25 9 -43 -20 -42 -16 1 -26 -3 -24 -10 2 -6 11 -10
21 -8 9 2 16 -2 16 -8 0 -6 -5 -8 -12 -4 -7 5 -9 2 -5 -9 4 -12 2 -14 -10 -10
-10 4 -14 2 -10 -4 4 -6 0 -16 -8 -23 -8 -7 -12 -16 -9 -21 3 -5 -2 -6 -11 -3
-9 4 -15 3 -14 -2 4 -21 -2 -35 -11 -29 -9 6 -14 -8 -11 -28 1 -5 -4 -5 -10
-1 -9 5 -10 2 -6 -10 5 -11 3 -15 -5 -10 -8 5 -9 2 -5 -10 4 -11 3 -15 -4 -11
-6 4 -8 13 -5 21 3 7 0 11 -7 8 -7 -2 -13 -14 -14 -24 -1 -11 2 -18 7 -15 6 4
7 -2 3 -11 -4 -11 -8 -13 -11 -6 -2 7 -8 12 -13 12 -6 0 -8 -4 -4 -9 7 -12
-24 -43 -36 -36 -5 4 -9 -1 -9 -10 0 -10 5 -13 12 -9 7 4 8 3 4 -4 -4 -6 -13
-9 -21 -6 -9 4 -13 -2 -11 -19 2 -19 -1 -24 -12 -19 -10 3 -13 1 -8 -6 4 -7 1
-15 -8 -18 -9 -3 -13 -11 -9 -18 4 -6 -2 -4 -12 4 -17 14 -18 13 -12 -3 5 -12
3 -16 -5 -11 -8 5 -9 2 -5 -10 8 -19 -22 -58 -36 -49 -6 4 -8 -1 -4 -11 5 -11
3 -15 -5 -10 -7 5 -9 2 -5 -9 7 -17 -15 -41 -28 -29 -5 4 -5 -1 -2 -10 6 -16
-13 -40 -29 -37 -21 4 -27 -2 -13 -13 8 -7 12 -12 10 -11 -9 5 -41 -19 -36
-28 4 -5 0 -12 -9 -15 -8 -3 -13 -14 -11 -24 3 -14 -1 -17 -12 -13 -11 4 -14
2 -9 -5 5 -8 2 -10 -8 -6 -11 4 -14 0 -12 -13 2 -10 -5 -29 -15 -42 -10 -13
-19 -18 -19 -12 0 6 -7 8 -15 5 -14 -6 -14 -8 1 -19 15 -11 15 -12 0 -12 -9 0
-16 3 -17 6 0 3 -2 13 -4 22 -2 10 3 16 14 15 10 -1 15 5 13 18 -2 10 1 16 5
13 5 -3 9 6 9 21 -1 19 4 27 16 26 9 -1 19 4 22 11 3 8 -2 11 -15 8 -11 -3
-19 0 -19 6 0 7 4 10 8 7 4 -2 14 -1 22 5 13 7 13 9 0 9 -13 0 -13 1 0 10 8 5
15 15 15 22 0 18 27 17 43 -2 11 -13 12 -13 10 0 -2 8 -7 18 -13 22 -7 5 -7 8
0 8 6 0 11 12 11 26 2 19 -2 24 -15 20 -12 -5 -11 -2 3 9 14 11 23 12 33 4 14
-12 43 4 43 23 0 6 -7 5 -15 -2 -16 -13 -28 -8 -31 14 -1 7 5 13 12 13 8 0 14
-3 14 -7 0 -4 7 -7 15 -7 8 0 11 5 8 10 -4 6 -1 7 7 2 8 -5 11 -4 6 3 -4 6
-14 8 -23 5 -11 -4 -14 -3 -9 5 4 7 15 12 24 12 14 0 15 2 2 10 -9 6 -17 5
-23 -3 -6 -8 -7 -8 -4 3 2 8 11 14 21 12 9 -2 16 2 16 8 0 5 9 19 20 30 11 11
15 20 9 20 -5 0 -7 6 -3 13 8 15 -51 -46 -88 -91 -17 -20 -25 -39 -21 -49 4
-9 2 -14 -3 -10 -6 3 -18 -7 -28 -24 -9 -16 -14 -29 -9 -29 4 0 1 -5 -7 -10
-8 -5 -16 -14 -16 -20 -1 -5 -2 -15 -3 -21 0 -5 -6 -7 -13 -3 -6 4 -8 3 -5 -3
4 -6 0 -16 -9 -23 -8 -7 -13 -19 -10 -26 3 -7 1 -16 -4 -19 -6 -4 -10 -15 -10
-26 0 -10 -3 -18 -7 -16 -5 1 -9 -1 -11 -5 -1 -5 -11 -24 -22 -43 -11 -19 -15
-35 -10 -35 6 0 10 4 10 10 0 5 8 2 18 -8 17 -16 17 -18 -1 -31 -20 -14 -20
-14 -1 -29 15 -12 15 -13 2 -9 -9 3 -19 0 -22 -9 -3 -9 -11 -12 -17 -8 -9 5
-6 11 6 21 14 9 15 13 4 13 -8 0 -10 3 -4 8 13 10 17 32 6 32 -10 0 -25 -34
-30 -69 -2 -13 -48 -60 -54 -54 -3 3 -21 -7 -40 -21 -18 -14 -37 -23 -40 -19
-4 3 -7 -1 -7 -10 0 -10 -5 -17 -11 -17 -5 0 -7 5 -4 10 3 5 -1 10 -10 10 -10
0 -14 -5 -9 -12 5 -10 4 -10 -5 -2 -17 15 -94 -33 -86 -53 2 -8 1 -11 -5 -8
-5 3 -19 -5 -31 -17 -12 -13 -19 -17 -15 -10 15 25 -10 11 -29 -18 -11 -16
-26 -30 -32 -30 -18 0 -44 -56 -48 -104 -2 -22 -7 -54 -11 -71 -3 -16 -7 -36
-7 -43 0 -7 -7 -10 -14 -8 -8 3 -11 2 -8 -3 3 -5 0 -11 -7 -14 -7 -2 -5 -3 4
-2 10 2 21 -2 25 -7 4 -7 1 -8 -6 -4 -8 5 -11 2 -9 -9 2 -10 -3 -20 -11 -23
-10 -3 -12 0 -8 12 5 12 1 16 -16 16 -18 0 -19 -2 -7 -10 8 -5 11 -10 5 -10
-5 0 -3 -5 5 -10 8 -5 23 -7 32 -4 12 4 16 -1 15 -15 -1 -14 -5 -17 -11 -11
-20 20 -26 10 -10 -15 9 -14 13 -25 9 -25 -5 0 0 -9 10 -20 18 -20 18 -21 -1
-14 -18 7 -18 7 1 -16 11 -13 14 -20 8 -16 -7 4 -13 3 -13 -3 0 -5 6 -12 13
-14 9 -4 8 -6 -2 -6 -11 -1 -11 -4 0 -19 12 -15 12 -16 -2 -4 -13 10 -19 9
-30 -5 -12 -15 -12 -16 3 -11 9 4 19 1 22 -7 2 -7 -1 -16 -9 -19 -9 -3 -12
-15 -9 -33 3 -19 1 -23 -5 -14 -5 8 -11 9 -15 3 -4 -6 1 -15 9 -20 13 -7 12
-10 -10 -20 -14 -6 -25 -16 -25 -22 0 -7 7 -7 23 0 21 11 21 10 3 -4 -14 -12
-16 -16 -5 -16 12 0 12 -2 -1 -10 -13 -9 -13 -11 0 -20 11 -7 11 -10 2 -10 -7
0 -11 -4 -7 -9 3 -5 1 -13 -5 -16 -8 -5 -7 -12 2 -23 8 -9 8 -13 2 -9 -7 4
-14 0 -18 -8 -3 -8 0 -17 6 -21 7 -4 2 -14 -13 -26 -17 -14 -19 -18 -6 -14 13
4 16 2 10 -6 -8 -14 -13 -40 -16 -80 0 -15 -5 -24 -9 -21 -5 2 -7 -7 -4 -21 3
-14 1 -28 -4 -31 -5 -3 -6 -13 -3 -22 5 -13 2 -15 -21 -9 -24 6 -26 5 -14 -13
9 -15 15 -17 25 -9 10 8 12 7 7 -6 -7 -19 -9 -19 -35 -6 -10 6 -19 8 -19 6 0
-3 14 -13 31 -22 22 -11 28 -19 21 -26 -6 -6 -8 -18 -5 -27 3 -9 1 -12 -4 -6
-12 14 -33 17 -33 4 0 -5 -5 -7 -11 -3 -8 4 -7 9 2 15 7 4 16 6 20 3 4 -2 7 5
6 16 -1 20 -17 29 -17 10 0 -6 -8 -10 -17 -8 -12 2 -17 -4 -16 -19 0 -13 2
-24 3 -25 1 -2 3 -12 5 -22 4 -23 25 -38 44 -31 22 8 44 -15 30 -31 -13 -16 2
-19 17 -4 7 7 10 0 10 -22 -1 -18 4 -32 9 -31 6 1 12 -8 12 -20 1 -12 -1 -17
-5 -12 -10 14 -32 17 -32 5 0 -6 6 -10 13 -10 8 0 7 -4 -3 -11 -11 -7 -7 -9
18 -5 28 4 31 2 21 -10 -7 -8 -18 -13 -25 -10 -7 3 -16 0 -20 -6 -4 -6 -3 -8
4 -4 6 3 13 2 17 -4 4 -6 16 -3 33 8 14 9 23 11 18 4 -4 -7 -10 -25 -12 -40
-4 -22 -3 -25 7 -14 7 6 17 12 23 12 5 0 1 -7 -10 -15 -16 -13 -16 -14 -2 -9
11 4 18 1 18 -6 0 -6 4 -9 8 -6 4 2 9 -4 9 -15 1 -10 -3 -19 -8 -19 -6 0 -8
-4 -4 -10 3 -5 11 -8 18 -6 7 1 9 1 5 -1 -13 -7 -9 -18 12 -41 12 -12 17 -22
12 -22 -5 0 -9 -7 -9 -15 0 -18 13 -20 21 -2 3 6 3 1 -1 -13 -5 -23 -5 -24 12
-10 11 8 16 10 12 3 -4 -6 -1 -13 5 -16 7 -2 9 -8 5 -13 -4 -5 -12 -2 -17 6
-6 9 -10 10 -10 3 0 -20 20 -26 37 -11 10 8 14 8 10 1 -4 -6 -3 -14 2 -18 6
-3 8 -11 5 -19 -3 -7 2 -13 11 -13 10 0 14 6 10 16 -4 12 -1 11 9 -2 8 -11 12
-26 9 -35 -5 -11 -3 -13 8 -6 23 14 36 13 35 -5 0 -9 4 -15 10 -14 6 1 10 -15
9 -43 -2 -36 0 -42 11 -33 13 10 18 6 15 -13 0 -4 8 -12 18 -18 13 -7 18 -18
15 -33 -2 -16 1 -24 12 -24 9 0 13 6 9 16 -3 10 1 9 11 -4 8 -11 20 -19 25
-18 5 2 8 -2 6 -9 -1 -7 3 -12 8 -13 14 0 82 -45 70 -45 -5 0 -3 -5 5 -10 8
-5 15 -15 15 -22 1 -7 6 -12 13 -11 6 2 9 -4 6 -12 -4 -8 -1 -15 5 -15 6 0 20
-9 31 -20 11 -11 16 -20 10 -20 -5 0 -10 -4 -10 -9 0 -5 8 -8 18 -7 9 2 41
-14 69 -36 29 -21 54 -37 55 -36 2 1 12 -4 23 -11 15 -9 16 -11 2 -7 -9 3 -17
1 -17 -4 0 -6 6 -10 14 -10 8 0 22 -10 31 -22 8 -13 19 -22 23 -20 4 1 7 -6 7
-15 -1 -10 -7 -17 -14 -15 -7 1 -10 -2 -6 -7 7 -13 35 -3 35 13 0 6 5 4 10 -4
5 -8 10 -11 10 -6 0 5 12 -3 26 -17 15 -15 30 -24 35 -21 5 3 8 0 7 -8 -2 -8
6 -13 19 -12 13 1 20 -3 16 -11 -2 -7 1 -16 7 -20 6 -4 9 -1 8 7 -3 14 -1 14
81 -8 70 -19 314 -11 406 13 38 10 110 16 200 17 83 1 148 6 160 13 11 6 36
19 55 27 19 9 55 27 80 41 25 14 53 25 62 25 10 0 41 9 70 20 29 11 54 20 55
20 1 0 0 -12 -2 -26 -2 -19 1 -24 13 -19 11 4 12 2 5 -7 -13 -17 -23 -56 -14
-60 3 -2 14 -17 23 -35 15 -30 15 -31 0 -27 -15 5 -15 4 -2 -8 9 -7 14 -21 12
-30 -2 -10 2 -18 8 -18 6 0 8 -4 5 -10 -3 -5 0 -10 7 -10 9 0 9 -3 -2 -10 -14
-9 -7 -15 14 -11 5 1 3 -5 -4 -14 -7 -8 -10 -18 -6 -22 3 -3 6 0 6 8 1 10 4 9
11 -4 5 -9 8 -21 5 -26 -6 -10 24 -25 32 -16 3 3 1 5 -5 5 -5 0 -10 7 -10 15
0 8 4 15 9 15 4 0 8 -7 8 -16 0 -8 5 -12 11 -9 6 4 5 -2 -2 -13 -7 -12 -17
-18 -23 -15 -5 3 -6 1 -2 -6 6 -9 11 -9 24 1 14 12 14 10 2 -12 -12 -23 -12
-24 4 -11 14 12 16 12 10 -4 -5 -13 -4 -16 4 -11 8 5 12 0 12 -13 0 -22 32
-45 45 -33 5 4 5 2 1 -5 -4 -7 -13 -10 -21 -7 -11 4 -13 0 -9 -18 4 -12 7 -31
7 -40 1 -10 5 -18 9 -18 4 0 8 -9 8 -19 0 -15 6 -19 25 -17 13 2 22 0 19 -5
-2 -4 -21 -6 -40 -4 -64 6 -97 -52 -54 -95 24 -24 39 -25 66 -5 21 16 38 20
30 6 -3 -5 1 -11 9 -15 8 -3 12 -12 9 -20 -3 -8 1 -28 10 -44 8 -16 13 -32 9
-35 -8 -8 17 -67 28 -67 5 0 6 -7 3 -15 -4 -8 1 -17 9 -21 9 -3 13 -12 10 -20
-3 -8 0 -14 7 -14 6 0 8 -4 5 -10 -10 -17 6 -34 17 -19 7 10 8 9 4 -5 -4 -11
-1 -23 6 -28 11 -6 10 -8 0 -8 -10 0 -9 -4 3 -16 9 -9 14 -21 12 -28 -2 -6 3
-17 10 -25 12 -11 17 -11 31 0 10 8 7 4 -6 -9 -18 -17 -22 -26 -13 -35 6 -6
11 -19 11 -29 0 -10 9 -28 20 -40 67 -76 84 -106 69 -124 -16 -20 -18 -64 -2
-64 6 0 15 -4 18 -10 4 -6 -1 -7 -12 -4 -10 3 -5 -3 11 -14 29 -20 69 -90 60
-104 -3 -5 -2 -8 3 -8 9 0 33 -48 33 -67 0 -16 11 -17 28 -3 9 7 9 7 2 -2 -5
-7 -10 -15 -10 -20 0 -4 36 -44 80 -89 44 -44 80 -85 80 -90 0 -5 6 -9 14 -9
7 0 19 -6 25 -14 17 -20 88 -56 95 -49 3 4 6 -1 6 -10 0 -11 5 -14 17 -10 11
4 14 3 9 -5 -4 -8 0 -12 11 -12 10 0 25 -9 33 -20 11 -15 17 -17 27 -8 8 6 13
7 12 2 -4 -22 2 -32 22 -37 14 -4 18 -10 13 -18 -5 -9 -2 -10 10 -6 10 4 20 7
22 7 2 0 4 7 4 15 0 8 4 15 8 15 4 0 8 -9 8 -19 0 -11 -3 -19 -6 -19 -18 1
-21 -4 -10 -17 16 -19 34 -19 26 0 -5 14 5 20 27 16 5 -1 6 3 2 8 -3 6 -13 7
-22 4 -11 -4 -14 -3 -9 6 5 7 14 10 22 7 7 -3 16 0 20 6 5 7 11 6 19 -6 11
-15 13 -15 19 -1 9 23 26 8 22 -18 -3 -12 -5 -26 -5 -31 -1 -4 -8 -5 -17 -2
-8 3 -13 2 -10 -2 3 -5 -5 -8 -17 -7 -12 1 -22 7 -22 12 0 6 -3 15 -8 19 -4 4
-6 -4 -5 -18 1 -13 8 -25 15 -26 7 -1 20 -3 28 -4 8 -1 15 -4 15 -8 0 -3 16
-7 36 -8 20 -2 45 -7 55 -12 23 -13 42 -13 34 0 -4 6 -10 8 -15 5 -4 -3 -7 3
-6 12 0 9 -6 18 -14 21 -13 5 -13 3 -1 -11 9 -11 10 -17 2 -17 -6 0 -11 4 -11
9 0 5 -13 7 -29 6 -40 -3 -51 7 -29 28 22 21 28 22 40 5 8 -10 9 -10 5 2 -2 8
-9 14 -14 13 -6 -1 -10 9 -10 22 0 14 3 22 8 19 5 -3 9 -12 9 -21 0 -9 3 -13
7 -9 5 4 8 13 8 18 0 6 7 13 15 15 9 3 11 1 5 -4 -5 -4 -11 -13 -12 -20 -3
-14 24 -25 32 -13 4 6 1 10 -6 10 -31 0 10 20 49 24 34 3 41 1 32 -9 -8 -9 -8
-15 0 -20 5 -3 10 -2 10 3 0 5 6 9 14 9 9 0 12 -6 8 -16 -5 -14 -4 -14 12 -2
15 13 19 13 27 0 5 -8 9 -10 9 -5 0 5 7 2 17 -5 9 -8 18 -13 20 -11 1 1 4 1 6
1 1 -1 13 -2 27 -3 14 -1 30 -4 35 -7 6 -3 27 -5 47 -4 25 1 35 -2 31 -9 -4
-6 1 -4 11 4 15 12 53 15 180 15 181 1 230 13 334 84 64 43 81 53 153 87 76
35 147 99 203 181 25 38 66 91 92 118 25 28 41 43 35 34 -9 -13 -7 -20 13 -33
14 -9 30 -16 36 -16 5 0 10 -4 10 -10 0 -5 7 -10 16 -10 8 0 12 -4 9 -10 -3
-5 -1 -10 5 -10 6 0 9 -4 6 -8 -3 -5 6 -15 19 -22 13 -7 22 -17 19 -22 -3 -4
2 -8 10 -8 9 0 16 -6 16 -12 0 -9 4 -8 10 2 6 9 10 10 10 3 0 -7 13 -25 28
-41 26 -26 30 -28 41 -13 6 9 9 10 5 3 -3 -8 3 -22 15 -33 12 -11 21 -16 21
-12 0 4 5 0 11 -10 6 -9 14 -15 20 -12 5 4 12 -1 15 -9 3 -9 11 -13 17 -9 5 3
16 -2 23 -11 7 -10 15 -17 18 -17 23 1 66 -24 66 -37 0 -15 2 -15 10 -2 8 12
10 10 10 -9 0 -19 3 -21 14 -12 10 9 16 8 26 -4 7 -8 17 -12 23 -8 6 3 7 1 3
-6 -4 -6 -13 -8 -19 -4 -7 4 -5 -2 3 -13 22 -29 24 -30 17 -11 -4 9 -2 17 3
17 6 0 10 -7 10 -15 0 -8 4 -15 10 -15 5 0 7 8 4 18 -4 12 -1 10 8 -4 7 -12
19 -19 26 -17 8 3 10 -1 5 -14 -6 -16 -5 -16 10 -4 10 8 17 9 17 3 0 -6 8 -9
18 -7 10 2 36 -5 57 -16 22 -10 36 -18 31 -19 -5 0 -3 -7 4 -15 9 -10 16 -12
25 -5 7 6 15 6 22 -1 7 -7 15 -5 27 6 15 15 16 15 16 0 0 -12 4 -14 19 -6 10
6 21 7 25 4 3 -3 6 -1 6 7 0 10 3 10 15 0 12 -10 15 -10 15 0 0 7 7 10 15 6 8
-3 20 0 27 7 7 7 20 12 28 12 8 -1 26 3 40 8 14 5 84 10 155 11 137 2 199 18
285 71 19 11 58 29 85 40 66 24 145 76 189 125 19 21 61 51 93 67 37 18 85 55
133 103 41 41 94 88 118 104 72 49 140 135 172 216 7 19 28 52 46 72 47 52 77
104 102 170 12 32 39 84 60 115 39 57 82 158 82 190 0 9 15 39 34 67 18 28 43
77 54 108 12 32 39 84 60 115 55 81 83 163 89 260 5 67 9 84 24 88 24 8 69 44
69 56 0 6 -4 8 -9 5 -5 -3 -11 4 -15 17 -9 33 -8 36 14 30 12 -3 20 -14 20
-27 1 -13 10 -1 27 34 15 30 26 57 26 60 -10 56 -11 80 -4 80 5 0 8 8 8 18 -2
32 14 82 26 79 6 -1 11 5 12 13 0 8 9 16 20 18 38 7 44 27 24 84 -9 29 -21 54
-26 55 -9 3 -9 70 1 80 3 3 6 15 6 25 0 10 3 18 8 19 45 6 84 4 88 -3 3 -5 12
-4 20 3 8 7 14 7 14 1 0 -6 16 -8 38 -5 20 2 51 5 67 6 17 1 33 6 37 12 5 6 8
5 8 -3 0 -7 3 -11 8 -8 4 2 36 1 70 -3 35 -4 65 -4 68 1 3 4 10 8 15 8 6 0 7
-5 3 -11 -3 -6 5 -4 19 6 24 15 26 15 30 -2 5 -17 5 -17 6 0 1 12 5 15 14 10
18 -11 60 -12 73 -2 7 6 16 4 24 -6 7 -9 18 -12 24 -7 6 4 28 7 49 7 20 -1 37
2 37 5 0 9 32 6 47 -3 6 -4 15 -3 18 3 5 7 11 8 19 1 13 -11 136 -8 155 3 6 4
11 2 11 -5 0 -8 5 -7 17 2 15 12 16 12 8 -1 -6 -12 -5 -13 5 -3 9 9 19 9 33 2
15 -8 18 -8 12 1 -5 9 -2 10 11 3 24 -12 108 -17 101 -6 -7 10 125 9 143 -2 9
-6 11 -4 5 5 -6 10 -4 11 6 4 19 -13 72 -12 81 1 5 6 8 5 8 -3 0 -9 5 -10 18
-4 20 10 138 9 148 -1 4 -4 14 -1 22 6 13 9 14 9 8 0 -9 -16 -1 -16 26 -2 16
9 19 8 13 -2 -6 -8 -4 -10 6 -4 22 14 100 15 92 2 -4 -7 1 -5 12 3 10 8 19 15
20 15 1 0 10 -7 20 -15 17 -13 18 -13 10 0 -7 12 -6 13 6 4 16 -12 29 -12 48
0 11 7 12 6 6 -5 -7 -11 -6 -12 6 -3 20 15 112 17 103 2 -5 -7 -2 -8 7 -2 23
14 52 15 61 2 6 -10 8 -10 8 1 0 10 3 11 14 2 11 -9 16 -9 21 0 6 8 10 7 16
-2 5 -8 9 -9 9 -3 0 17 130 19 131 2 0 -7 4 -4 9 7 5 11 9 15 9 8 1 -6 10 -10
21 -8 11 2 22 -1 25 -6 4 -5 12 -6 18 -2 20 13 41 12 49 0 5 -8 8 -5 8 8 0 17
2 17 10 5 5 -8 10 -10 10 -5 0 6 18 9 43 8 109 -8 187 -9 193 -4 7 8 104 8
104 0 0 -3 30 -4 68 -2 79 6 170 5 230 0 23 -3 44 -2 46 2 3 4 35 6 73 5 180
-5 233 -3 233 9 0 4 6 2 14 -5 9 -9 11 -21 5 -40 -4 -16 -3 -28 3 -30 14 -5
16 -87 2 -92 -6 -2 -15 -22 -19 -43 -4 -21 -12 -44 -17 -51 -11 -12 2 -36 20
-38 21 -2 42 -18 42 -31 0 -8 5 -11 10 -8 6 3 11 -1 11 -9 2 -18 1 -17 17 -73
8 -27 9 -49 3 -66 -8 -20 -4 -36 16 -76 18 -35 29 -47 35 -39 4 7 5 -3 0 -22
-4 -19 -7 -75 -7 -125 0 -106 25 -187 86 -278 22 -31 49 -83 61 -115 11 -31
36 -80 54 -108 19 -28 34 -58 34 -67 0 -32 43 -133 82 -190 21 -31 48 -83 60
-115 25 -66 55 -118 102 -170 18 -20 39 -53 46 -72 32 -81 100 -167 172 -216
24 -16 77 -63 118 -104 48 -48 96 -85 133 -103 32 -16 74 -46 93 -67 44 -49
123 -101 189 -125 28 -11 66 -29 85 -40 84 -52 149 -69 275 -72 66 -1 158 -5
205 -9 144 -11 276 36 382 136 32 31 58 54 58 51 0 -2 8 6 19 17 10 12 21 19
25 15 3 -3 6 -1 6 6 0 7 4 10 9 6 5 -3 16 1 24 9 8 8 17 12 21 9 3 -4 6 -1 6
6 0 7 5 9 10 6 6 -3 10 -1 10 6 0 7 3 10 6 6 3 -3 30 11 59 31 56 39 161 132
149 132 -12 0 50 50 69 56 10 3 16 12 14 19 -3 7 1 12 11 11 10 0 16 5 14 14
-2 8 0 12 4 8 4 -4 13 -3 19 2 20 16 96 -69 201 -223 56 -82 128 -146 203
-181 72 -34 89 -44 153 -87 107 -73 147 -82 385 -85 117 -1 217 -5 223 -9 5
-3 10 -2 10 4 0 9 17 10 35 0 6 -3 16 -4 23 -3 6 1 23 2 37 3 14 0 25 5 25 9
0 5 -10 8 -22 6 -13 -1 -23 -3 -23 -4 0 -1 -8 -3 -18 -5 -9 -2 -15 1 -11 6 3
5 9 7 14 4 5 -3 11 -1 15 4 3 6 12 8 20 4 8 -3 15 -1 15 5 0 5 8 13 17 16 10
4 14 4 10 0 -4 -4 1 -13 11 -21 15 -13 15 -13 -5 -3 -18 8 -22 8 -17 -4 3 -8
13 -13 22 -11 9 2 17 4 17 5 0 3 41 11 58 11 9 0 17 4 17 9 0 5 9 7 20 5 11
-2 20 0 20 5 0 5 9 12 20 15 11 3 20 11 20 17 0 6 -12 3 -26 -7 -18 -12 -24
-13 -19 -4 3 8 -1 5 -9 -5 -12 -15 -16 -16 -16 -5 -1 10 -4 9 -11 -4 -10 -18
-11 -18 -32 0 -18 16 -20 16 -14 1 3 -10 1 -20 -5 -24 -7 -5 -8 -2 -3 6 5 8 4
11 -1 7 -6 -3 -16 -2 -24 4 -11 6 -12 9 -2 9 7 0 10 4 7 10 -4 6 1 7 11 3 12
-4 15 -3 10 6 -4 6 -3 10 3 9 5 -2 17 6 26 17 16 20 16 20 5 -2 -7 -15 -7 -23
-1 -23 13 0 32 35 24 43 -3 4 4 5 16 2 12 -2 21 1 21 8 0 7 4 6 10 -3 8 -12
11 -13 19 -1 6 9 11 10 15 2 4 -6 12 -9 17 -6 5 4 9 1 9 -5 0 -6 4 -9 10 -5 5
3 8 11 6 18 -1 7 -1 8 2 4 2 -4 10 -3 17 3 7 6 19 9 26 8 8 -2 13 2 12 9 -2 7
3 10 11 7 7 -3 27 7 44 21 17 14 32 25 34 25 8 -4 58 24 58 32 0 5 4 7 9 4 5
-3 14 1 21 9 7 8 19 15 27 15 10 0 13 6 9 16 -3 9 -2 12 5 9 13 -8 51 24 43
37 -3 4 -2 7 3 6 9 -3 123 106 123 117 0 3 6 13 13 20 33 38 38 47 33 61 -3 9
-1 12 4 9 6 -3 10 1 10 9 0 9 5 16 11 16 6 0 9 6 6 14 -3 8 -1 16 4 18 5 2 11
13 12 25 0 13 7 25 14 27 7 3 13 13 13 21 0 9 5 13 10 10 6 -3 10 1 10 10 0
12 5 15 17 11 10 -4 14 -4 10 0 -4 4 -1 14 6 22 8 10 8 13 1 9 -7 -4 -15 0
-18 9 -4 10 -2 13 7 9 6 -4 4 0 -6 9 -23 18 -17 41 23 86 30 34 41 62 17 41
-10 -8 -14 -7 -14 3 0 9 8 13 24 10 16 -3 22 -1 18 6 -3 5 1 13 10 16 13 6 14
8 3 15 -9 6 -9 9 -1 9 7 0 11 11 8 29 -3 24 0 29 12 24 10 -4 14 -2 9 5 -3 6
-2 13 4 17 6 4 8 10 5 15 -3 5 2 15 11 24 8 9 13 20 10 25 -4 5 0 16 8 24 20
20 23 51 6 73 -11 15 -11 16 0 7 8 -7 17 -13 21 -13 8 0 24 40 21 53 -1 4 3 7
9 7 5 0 7 5 4 10 -3 6 -2 10 3 10 5 0 9 6 10 13 0 6 4 22 7 35 5 15 3 22 -6
22 -9 0 -8 4 3 13 21 16 36 63 17 51 -11 -6 -11 -5 0 9 13 17 15 17 33 0 27
-25 55 -26 78 -3 35 35 18 89 -28 93 -20 1 -22 5 -16 27 9 36 17 82 18 103 0
9 4 17 8 17 4 0 8 4 8 10 0 5 13 22 28 37 26 26 52 80 32 68 -5 -3 -12 0 -16
6 -4 8 -3 9 4 5 7 -4 12 -3 12 3 0 6 7 8 15 5 11 -5 17 3 21 25 4 19 11 28 18
24 6 -4 5 1 -3 10 -7 9 -9 17 -3 17 5 0 12 9 15 21 4 17 3 18 -9 8 -12 -10
-13 -9 -8 5 3 9 11 16 17 16 6 0 8 3 4 6 -3 4 1 20 9 36 8 16 12 33 9 38 -3 6
-1 10 6 10 8 0 8 4 -1 15 -7 8 -17 12 -23 8 -6 -3 -7 -1 -3 5 4 6 14 9 24 6
14 -5 15 -4 2 5 -13 10 -13 12 0 21 13 9 13 10 0 10 -13 0 -13 2 -1 9 10 7 7
9 -11 8 -16 -1 -24 -7 -21 -14 3 -7 10 -10 17 -6 6 3 8 2 3 -2 -4 -5 -16 -9
-27 -10 -14 -1 -17 2 -10 10 5 7 7 15 3 18 -3 4 2 9 11 13 9 3 13 10 10 15 -3
5 -1 9 5 9 5 0 11 -3 13 -8 12 -29 200 -122 246 -122 10 0 37 -11 62 -25 25
-14 61 -32 80 -41 19 -8 44 -21 55 -27 12 -7 77 -12 160 -13 90 -1 162 -7 200
-17 33 -9 125 -18 205 -22 126 -5 155 -4 220 14 41 11 76 18 78 16 3 -2 13 6
23 18 18 20 19 21 13 2 -5 -19 -5 -19 9 -3 8 10 16 16 18 14 2 -2 10 2 17 10
7 8 11 14 9 14 -12 0 125 128 153 144 57 30 116 83 165 147 26 32 52 59 59 59
7 0 22 9 33 19 12 11 23 18 26 15 2 -3 12 7 21 21 15 23 20 24 34 13 11 -9 14
-10 8 0 -4 7 -2 12 7 12 17 0 59 48 52 60 -3 5 4 7 16 5 15 -3 19 0 15 11 -3
9 -2 12 4 9 11 -7 40 18 40 34 0 6 5 11 11 11 5 0 7 -6 4 -12 -4 -7 14 9 39
37 26 28 44 56 41 64 -4 9 0 11 10 7 9 -3 14 -2 10 3 -3 5 1 12 7 14 9 4 9 6
1 6 -6 1 -9 10 -6 21 3 11 10 17 16 13 6 -3 7 -1 3 6 -4 6 -2 19 6 28 7 9 8
14 2 10 -7 -4 -15 0 -18 9 -9 23 -7 31 4 14 8 -13 11 -13 22 -1 10 10 10 12 1
7 -22 -12 -14 8 12 32 49 47 75 209 79 490 0 23 5 42 11 42 5 0 3 5 -5 10 -10
6 -11 10 -2 10 6 0 12 7 12 16 0 8 -4 13 -8 10 -11 -7 -9 61 2 71 5 5 6 2 1
-6 -6 -10 -4 -12 4 -7 7 5 9 12 3 19 -10 14 -10 27 0 43 4 6 1 11 -6 11 -8 0
-12 -11 -11 -28 1 -16 -1 -27 -5 -24 -6 4 -6 26 -1 68 1 5 6 5 13 1 7 -5 8 -3
4 5 -5 7 -14 10 -21 7 -9 -3 -11 2 -7 16 3 12 1 19 -4 15 -6 -3 -10 5 -10 19
0 23 15 35 17 14 1 -5 3 -14 4 -20 1 -5 3 -14 4 -20 0 -5 5 -10 11 -10 6 0 6
9 0 26 -6 14 -8 30 -4 35 5 8 -9 13 -28 10 -5 0 -8 4 -8 9 0 6 6 10 13 10 8 0
7 4 -3 10 -8 5 -12 10 -8 10 4 0 3 12 -2 26 -6 14 -12 54 -15 89 -8 97 -68
215 -164 320 -25 27 -35 41 -22 30 24 -20 24 -20 14 0 -6 11 -9 35 -8 53 1 18
-2 35 -7 38 -5 3 -6 10 -3 15 4 5 -4 13 -17 18 -13 6 -17 10 -10 10 6 1 12 6
12 12 0 5 -4 8 -9 5 -5 -4 -11 -1 -13 6 -2 6 -10 8 -17 4 -8 -5 -9 -12 -2 -20
8 -9 7 -13 -4 -13 -8 0 -13 3 -10 5 3 3 -1 12 -8 20 -8 11 -8 14 0 9 16 -10
24 5 12 23 -7 13 -9 13 -9 0 -1 -8 -5 -5 -11 8 -5 13 -13 21 -18 17 -5 -3 -12
3 -15 13 -9 28 -54 46 -75 30 -14 -12 -15 -11 -2 5 13 16 13 20 1 27 -18 11
-33 2 -24 -13 4 -7 4 -9 -1 -5 -4 4 -15 2 -24 -4 -11 -9 -10 -6 2 9 22 25 14
31 -41 35 -22 2 -39 5 -37 7 6 5 -22 31 -34 31 -6 0 -11 5 -11 10 0 6 -6 10
-13 10 -13 0 -42 47 -39 63 1 4 -3 7 -8 7 -6 0 -10 11 -10 25 0 14 -5 25 -11
25 -5 0 -7 -6 -3 -12 4 -7 3 -10 -1 -5 -5 4 -9 22 -10 40 -1 32 -33 97 -48 97
-5 0 -5 -6 -1 -12 4 -7 -2 -4 -14 6 -12 11 -20 21 -17 24 3 3 -4 12 -15 19
-11 8 -18 18 -15 23 3 5 -9 20 -27 34 -18 15 -26 24 -17 21 10 -4 16 0 16 9 0
11 -8 14 -23 12 -25 -5 -50 17 -39 34 3 5 -1 10 -9 10 -9 0 -17 5 -17 10 -1 6
-3 15 -4 20 -1 6 -3 15 -4 21 0 5 -6 7 -11 4 -6 -4 -9 -1 -8 6 2 7 -4 14 -12
14 -8 1 -14 6 -13 13 2 7 -3 12 -10 12 -7 0 -18 9 -25 20 -7 12 -17 18 -22 15
-6 -4 -7 1 -3 11 4 11 2 15 -4 11 -6 -4 -18 5 -28 19 -9 14 -19 23 -22 20 -11
-11 -32 15 -26 32 3 9 2 14 -2 9 -5 -4 -26 9 -46 29 -28 27 -36 43 -33 60 2
13 1 24 -3 23 -20 -3 -24 2 -13 16 15 18 -1 20 -19 3 -10 -9 -12 -9 -7 -1 3 6
-2 16 -11 22 -12 7 -13 10 -4 11 9 0 10 4 4 13 -5 6 -9 21 -9 32 1 11 -3 24
-9 28 -6 5 -1 6 10 3 20 -6 20 -6 1 9 -14 11 -16 15 -5 15 11 1 10 4 -4 14
-11 9 -15 20 -10 31 5 14 3 16 -7 10 -8 -5 -11 -4 -6 3 4 6 13 9 22 5 12 -4
12 -8 2 -21 -11 -13 -11 -14 1 -7 10 6 12 4 6 -6 -5 -8 -4 -10 0 -6 24 22 -8
69 -35 52 -6 -4 -7 1 -3 11 4 12 3 15 -6 10 -6 -4 -10 -3 -9 2 3 11 -11 34
-63 101 -20 26 -41 57 -48 69 -8 15 -18 21 -28 18 -13 -5 -14 -4 -4 8 10 12 9
18 -8 32 -11 10 -17 22 -14 28 3 6 2 7 -2 3 -11 -10 -16 -39 -5 -32 4 3 13 -2
20 -10 9 -10 9 -15 1 -15 -6 0 -11 4 -11 10 0 5 -6 9 -12 7 -8 -1 -12 8 -12
23 1 13 -6 31 -15 38 -9 7 -10 11 -3 7 17 -8 15 3 -3 21 -8 9 -20 12 -27 8 -9
-6 -9 -3 1 9 13 17 7 22 -21 18 -4 0 -5 6 -1 15 3 9 1 19 -5 23 -15 9 -72 123
-66 133 3 4 0 8 -5 8 -6 0 -11 9 -11 21 0 13 -4 18 -12 13 -10 -6 -10 -4 0 8
10 13 10 17 -3 22 -12 4 -14 10 -5 25 7 13 7 22 0 26 -6 4 -8 10 -5 15 3 4 -2
10 -10 14 -9 3 -12 12 -8 22 3 9 0 19 -6 23 -7 5 -13 22 -13 39 -1 17 -5 29
-10 26 -4 -3 -8 9 -8 25 0 17 -4 31 -10 31 -5 0 -7 -8 -3 -17 5 -15 3 -14 -10
2 -8 11 -13 24 -9 29 9 15 10 66 1 66 -5 0 -6 7 -3 15 6 14 -5 19 -33 16 -16
-2 -17 15 -2 25 8 4 4 11 -9 18 -21 11 -21 12 -2 24 12 7 20 8 20 2 0 -5 -5
-10 -12 -10 -6 0 -9 -2 -6 -5 3 -3 13 -3 22 1 12 5 14 10 5 20 -6 7 -7 19 -3
25 4 8 3 9 -5 5 -8 -5 -10 1 -6 23 3 17 1 31 -4 31 -5 0 -7 13 -6 28 2 21 -2
28 -15 28 -21 0 -20 -24 1 -37 8 -5 9 -9 3 -9 -6 0 -11 -7 -11 -15 0 -10 6
-14 16 -10 11 3 10 0 -3 -10 -11 -8 -14 -15 -8 -15 7 0 12 -5 12 -11 0 -5 -5
-7 -12 -3 -7 4 -8 3 -4 -5 4 -6 12 -9 17 -6 5 4 9 1 9 -4 0 -14 -30 -14 -31
-1 -3 20 -4 25 -12 38 -5 6 -5 12 -1 12 4 0 0 8 -9 18 -13 15 -14 21 -4 32 10
10 9 12 -6 7 -11 -4 -16 -3 -12 3 3 6 0 10 -7 10 -9 0 -9 3 2 10 8 5 11 10 6
10 -5 0 -3 7 4 15 14 17 0 21 -17 4 -8 -8 -13 -8 -17 0 -4 6 -5 11 -1 11 3 0
1 9 -5 19 -6 12 -6 22 -1 26 6 3 8 14 6 24 -2 10 3 18 10 18 8 0 12 -4 9 -8
-2 -4 0 -11 6 -14 8 -5 7 -11 -1 -21 -10 -12 -9 -17 1 -27 8 -8 11 -8 7 -1 -4
7 0 17 9 24 10 9 11 15 4 20 -6 4 -12 17 -13 29 -1 12 -6 20 -12 17 -7 -2 -11
8 -10 28 1 17 0 36 -4 41 -11 19 -13 41 -14 175 -1 93 -6 142 -16 159 -7 13
-16 55 -20 94 l-6 69 40 42 c22 22 58 77 80 121 22 44 43 82 46 85 4 3 10 16
14 30 4 14 16 36 26 49 11 13 19 30 19 37 0 8 4 14 9 14 5 0 12 12 16 27 3 15
20 43 36 64 16 20 29 42 29 49 0 6 5 8 10 5 6 -3 11 -1 11 4 2 14 6 29 9 36 1
3 3 10 4 17 0 6 11 12 23 13 19 1 21 -1 11 -19 -6 -12 -11 -23 -10 -26 1 -3
-3 -5 -10 -5 -6 0 -12 -6 -14 -13 -1 -7 0 -8 2 -3 3 6 11 8 18 5 14 -5 24 13
32 54 4 18 0 22 -13 20 -19 -3 -22 14 -9 45 10 21 23 22 23 2 0 -8 -3 -12 -7
-10 -4 2 -7 -2 -7 -10 0 -8 4 -15 9 -15 8 0 12 16 9 33 -1 4 7 7 16 5 12 -2
18 4 18 20 0 12 6 26 13 31 11 7 22 37 24 69 1 6 5 12 10 12 4 0 7 3 7 8 -1 4
0 10 1 15 1 4 3 13 4 20 1 6 9 11 19 11 9 -1 15 2 12 6 -2 4 4 15 15 25 14 13
18 26 15 47 -3 16 -2 27 2 25 5 -3 8 28 8 68 0 40 -3 71 -6 69 -13 -8 5 103
23 144 10 23 16 47 13 52 -3 5 -1 11 4 14 5 4 8 18 5 32 -3 15 -1 23 5 20 6
-4 8 4 5 18 -2 14 0 27 5 31 22 13 31 275 9 275 -4 0 -8 5 -8 11 0 5 5 7 12 3
7 -4 8 -3 4 5 -4 6 -2 19 5 27 10 12 9 13 -7 7 -17 -6 -17 -5 -5 10 7 9 10 17
6 17 -4 0 -2 7 5 15 11 13 10 14 -1 10 -10 -4 -15 2 -16 15 -1 12 5 24 13 27
9 3 11 8 6 12 -6 3 -12 20 -15 37 -3 17 -9 39 -15 50 -6 10 -13 27 -16 37 -3
9 -10 17 -16 17 -6 0 -8 -5 -4 -12 4 -7 3 -8 -5 -4 -8 5 -9 12 -2 20 11 13 4
56 -10 56 -5 0 -7 -6 -5 -12 1 -7 1 -10 -1 -5 -3 4 -10 4 -16 1 -8 -5 -8 -2 1
7 18 19 15 32 -5 24 -14 -5 -15 -3 -6 6 14 14 6 39 -13 39 -8 0 -14 7 -14 15
0 8 -4 15 -10 15 -5 0 -10 7 -10 16 0 8 -4 12 -10 9 -5 -3 -10 1 -10 11 0 13
-3 14 -14 5 -12 -10 -14 -9 -10 6 4 13 -3 23 -20 33 -14 7 -26 17 -26 22 0 4
-7 8 -15 8 -8 0 -15 4 -15 9 0 5 -7 12 -16 15 -10 4 -13 2 -8 -7 4 -6 -5 0
-21 16 -15 15 -36 27 -46 27 -11 0 -19 6 -19 13 0 9 -2 9 -9 -1 -6 -11 -10
-10 -15 4 -3 9 -9 14 -12 11 -3 -3 -21 3 -40 14 -19 10 -48 20 -65 21 -17 1
-33 6 -35 10 -3 5 -14 4 -24 -2 -13 -7 -21 -7 -25 0 -3 5 -19 10 -35 10 -15 0
-31 6 -33 13 -4 9 -6 9 -6 -1 -1 -7 -6 -10 -11 -7 -6 4 -18 1 -27 -7 -9 -7
-14 -8 -10 -2 9 15 -16 25 -34 13z m-15315 -205 c3 -8 2 -12 -4 -9 -6 3 -10
10 -10 16 0 14 7 11 14 -7z m15957 -117 c-10 -9 -11 -8 -5 6 3 10 9 15 12 12
3 -3 0 -11 -7 -18z m-16215 -159 c3 -4 -1 -5 -10 -4 -8 1 -18 5 -22 8 -3 4 1
5 10 4 8 -1 18 -5 22 -8z m-41 -48 c-3 -5 -12 -10 -18 -10 -7 0 -6 4 3 10 19
12 23 12 15 0z m40 -139 c3 -5 2 -12 -3 -15 -5 -3 -9 1 -9 9 0 17 3 19 12 6z
m2 -556 c0 -8 -4 -12 -9 -9 -5 3 -6 10 -3 15 9 13 12 11 12 -6z m41 -20 c-3
-3 -9 2 -12 12 -6 14 -5 15 5 6 7 -7 10 -15 7 -18z m16205 -92 c-4 -10 -2 -14
4 -10 5 3 10 0 10 -8 0 -8 -5 -15 -10 -15 -6 0 -6 -5 0 -12 9 -12 9 -27 3 -45
-2 -5 -3 -21 -4 -38 -1 -23 -5 -29 -20 -27 -10 2 -15 -1 -12 -6 3 -5 -3 -17
-14 -27 -11 -10 -17 -22 -14 -26 3 -5 -1 -12 -9 -15 -7 -2 -14 -10 -15 -17 -1
-7 -3 -24 -5 -38 -3 -31 -25 -61 -38 -53 -5 3 -6 11 -2 17 4 7 8 18 10 26 1 8
6 17 12 20 6 4 9 17 6 29 -2 14 0 20 7 16 6 -4 8 2 4 17 -3 13 -3 18 0 11 3
-6 10 -9 15 -6 6 4 6 11 -1 19 -7 9 -6 16 5 25 8 7 12 16 9 21 -3 5 0 9 6 9 7
0 10 -7 6 -15 -8 -22 2 -18 14 5 6 11 7 20 3 19 -29 -5 -36 2 -15 17 12 8 22
20 22 26 0 6 -7 5 -17 -3 -15 -12 -16 -12 -8 1 6 8 10 20 10 25 0 6 9 8 20 7
17 -3 17 -2 4 14 -12 15 -12 16 0 9 11 -6 13 -4 8 9 -4 10 -5 22 -1 27 9 15
14 10 7 -8z m-123 -364 c11 -19 10 -20 -10 -9 -11 6 -18 15 -15 21 9 13 13 11
25 -12z m-15857 -24 c-3 -9 -8 -14 -10 -11 -3 3 -2 9 2 15 9 16 15 13 8 -4z
m217 -389 c0 -3 -4 -8 -10 -11 -5 -3 -10 -1 -10 4 0 6 5 11 10 11 6 0 10 -2
10 -4z m120 -946 c0 -5 -2 -10 -4 -10 -3 0 -8 5 -11 10 -3 6 -1 10 4 10 6 0
11 -4 11 -10z m-160 -200 c0 -5 -4 -10 -10 -10 -5 0 -10 5 -10 10 0 6 5 10 10
10 6 0 10 -4 10 -10z m-32 -42 c15 -15 15 -28 1 -28 -5 0 -8 4 -4 9 3 6 -3 14
-12 20 -10 6 -13 11 -7 11 5 0 15 -5 22 -12z m15467 -18 c3 -5 -1 -10 -10 -10
-9 0 -13 5 -10 10 3 6 8 10 10 10 2 0 7 -4 10 -10z m-1 -31 c-2 -4 0 -10 6
-14 13 -8 3 -25 -13 -25 -7 0 -6 4 3 10 8 5 10 10 4 10 -7 0 -14 6 -17 13 -3
8 1 14 9 14 7 0 11 -4 8 -8z m-15514 -143 c0 -3 -4 -8 -10 -11 -5 -3 -10 -1
-10 4 0 6 5 11 10 11 6 0 10 -2 10 -4z m37 -31 c0 -8 -4 -12 -9 -9 -5 3 -6 10
-3 15 9 13 12 11 12 -6z m-107 -135 c0 -5 -5 -10 -11 -10 -5 0 -7 5 -4 10 3 6
8 10 11 10 2 0 4 -4 4 -10z m-38 -128 c-7 -2 -9 -9 -6 -14 4 -7 2 -8 -4 -4 -6
4 -9 13 -6 21 4 8 11 12 17 8 8 -5 7 -8 -1 -11z m-172 -329 c0 -3 -7 -3 -15 1
-18 6 -19 1 -5 -24 8 -16 8 -18 -5 -14 -8 4 -15 1 -15 -6 0 -6 -7 -18 -15 -27
-8 -8 -12 -19 -9 -25 4 -7 2 -8 -4 -4 -11 6 -16 -5 -14 -26 1 -3 -6 -12 -15
-20 -14 -11 -16 -11 -8 1 6 11 4 13 -9 8 -14 -5 -15 -3 -6 13 6 10 18 24 28
29 9 6 13 11 9 11 -4 0 -2 10 5 23 7 12 13 24 13 27 1 15 40 47 51 43 8 -3 14
-7 14 -10z m-160 -203 c0 -5 -4 -10 -10 -10 -5 0 -10 5 -10 10 0 6 5 10 10 10
6 0 10 -4 10 -10z m-396 -475 c-9 -14 -18 -25 -21 -25 -5 0 5 18 20 38 17 22
18 13 1 -13z m-44 -59 c0 -3 -4 -8 -10 -11 -5 -3 -10 -1 -10 4 0 6 5 11 10 11
6 0 10 -2 10 -4z m-57 -106 c-7 -26 -25 -38 -21 -14 2 15 15 33 25 34 0 0 -1
-9 -4 -20z m17508 -116 c17 -20 23 -57 8 -52 -6 2 -9 6 -7 9 2 3 -3 13 -11 22
-7 10 -10 17 -5 17 5 0 2 5 -6 10 -8 5 -10 10 -4 10 6 0 18 -7 25 -16z m269
-307 c0 -2 -8 -11 -18 -20 -15 -14 -19 -15 -19 -2 0 8 4 12 8 9 4 -2 10 0 14
6 6 10 15 14 15 7z m37 -14 c-4 -3 -1 -13 6 -22 11 -14 10 -14 -5 -2 -16 12
-16 31 -1 31 4 0 3 -3 0 -7z m36 -11 c15 -16 15 -19 2 -19 -8 0 -13 3 -10 5 3
3 0 11 -6 19 -17 20 -5 16 14 -5z m-18241 -24 c-14 -14 -44 -20 -36 -7 3 5 9
7 14 4 5 -3 11 -1 15 5 3 5 9 10 13 10 3 0 1 -5 -6 -12z m118 -4 c0 -8 -19
-13 -24 -6 -3 5 1 9 9 9 8 0 15 -2 15 -3z m-75 -22 c-3 -3 2 -13 11 -23 12
-14 13 -18 2 -25 -7 -4 -10 -3 -5 1 4 5 -2 18 -13 30 -16 17 -17 22 -5 22 8 0
13 -3 10 -5z m42 -9 c0 -9 -4 -10 -14 -2 -7 6 -13 12 -13 14 0 1 6 2 13 2 8 0
14 -6 14 -14z m-101 -13 c0 -12 -4 -16 -9 -11 -5 5 -6 14 -3 20 10 15 12 14
12 -9z m18259 -18 c-3 -3 3 -15 12 -26 18 -21 18 -21 -5 -2 -12 11 -20 21 -17
24 3 3 -3 15 -12 26 -18 21 -18 21 5 2 12 -11 20 -21 17 -24z m-18224 11 c13
-16 12 -17 -3 -4 -10 7 -18 15 -18 17 0 8 8 3 21 -13z m18180 0 c13 -16 12
-17 -3 -4 -10 7 -18 15 -18 17 0 8 8 3 21 -13z m95 -15 c3 -4 -1 -5 -10 -4 -8
1 -18 5 -22 8 -3 4 1 5 10 4 8 -1 18 -5 22 -8z m-18326 -18 c0 -7 -46 -7 -54
0 -2 3 9 6 25 6 16 1 29 -2 29 -6z m-88 -17 c-1 -4 7 -17 16 -28 17 -20 17
-20 -4 -2 -11 9 -21 24 -21 32 0 8 2 13 5 11 2 -2 4 -8 4 -13z m18483 -1 c-3
-3 0 -10 5 -17 7 -8 5 -12 -5 -12 -8 0 -13 3 -10 5 3 3 0 10 -5 17 -7 8 -5 12
5 12 8 0 13 -3 10 -5z m-18415 -6 c0 -2 -8 -10 -17 -17 -16 -13 -17 -12 -4 4
13 16 21 21 21 13z m-89 -23 c13 -16 12 -17 -3 -4 -17 13 -22 21 -14 21 2 0
10 -8 17 -17z m114 -12 c-9 -8 -36 -10 -30 -2 2 4 11 8 20 8 8 0 13 -3 10 -6z
m18387 -16 c3 0 9 -3 13 -7 4 -3 0 -5 -9 -4 -9 1 -22 8 -29 16 -10 10 -9 11 3
4 8 -5 18 -9 22 -9z m-18477 -4 c-3 -2 1 -11 7 -20 12 -15 11 -15 -7 0 -11 9
-33 15 -48 14 -15 -1 -29 1 -32 4 -2 4 16 7 40 7 24 0 42 -2 40 -5z m-40 -59
c-3 -3 3 -15 12 -26 14 -15 14 -18 2 -8 -9 6 -18 9 -22 6 -3 -3 -4 2 -2 13 1
10 -5 27 -14 38 -16 20 -16 20 7 1 12 -11 20 -21 17 -24z m97 23 c2 3 5 -2 5
-10 0 -19 0 -19 -23 7 -12 14 -13 18 -3 10 9 -6 18 -10 21 -7z m-127 -25 c3
-6 -1 -7 -9 -4 -18 7 -21 14 -7 14 6 0 13 -4 16 -10z m119 -22 c-4 -5 -9 -7
-12 -4 -3 3 -12 0 -21 -7 -14 -10 -14 -10 -4 4 13 16 46 23 37 7z m-321 -972
c14 14 27 -8 16 -27 -8 -16 -13 -18 -25 -8 -8 6 -12 14 -9 17 3 3 -1 12 -8 21
-10 14 -10 14 4 4 9 -7 19 -10 22 -7z m18895 -375 c1 -1 -4 -11 -13 -24 -8
-13 -12 -27 -8 -30 3 -4 1 -7 -6 -7 -8 0 -11 7 -6 18 5 14 4 15 -7 4 -11 -11
-10 -16 6 -28 19 -13 11 -20 -16 -15 -13 2 -9 -17 5 -23 8 -3 5 -11 -12 -25
-13 -12 -20 -21 -16 -21 5 0 0 -9 -10 -20 -20 -22 -43 -17 -24 6 6 8 8 14 3
14 -4 0 -3 5 3 11 6 6 9 17 7 24 -3 7 -1 16 5 20 6 3 11 1 11 -4 0 -6 4 -11 8
-11 4 0 8 9 8 20 0 15 -5 19 -21 14 -11 -3 -15 -2 -9 3 6 4 10 16 9 25 -2 10
2 16 8 15 7 -1 11 4 10 11 -2 6 3 11 10 10 6 -2 11 2 10 8 -1 8 24 11 45 5z
m-5811 -35 c20 5 19 3 -6 -73 -22 -65 -31 -78 -48 -78 -25 -1 -44 -14 -22 -16
8 -1 18 -1 23 0 5 1 4 -4 -2 -12 -7 -8 -10 -16 -7 -19 3 -2 -2 -5 -10 -5 -8 0
-12 4 -9 9 3 4 0 8 -6 8 -6 0 -9 4 -6 9 3 5 -1 12 -10 15 -9 4 -14 9 -11 13 4
3 0 11 -8 17 -13 9 -11 11 11 13 20 1 24 -1 13 -9 -10 -7 -8 -8 9 -3 13 4 22
2 22 -4 0 -6 5 -11 10 -11 18 0 10 18 -10 25 -11 4 -18 10 -16 13 2 4 -13 6
-34 4 -39 -4 -47 4 -56 56 -3 18 -14 28 -14 14 0 -19 -28 -14 -39 7 -13 23 9
36 29 18 10 -9 11 -9 5 1 -6 11 -3 12 12 3 11 -6 23 -7 27 -4 3 3 6 1 6 -7 0
-9 4 -10 13 -2 7 6 25 12 39 14 15 2 30 7 34 11 4 3 14 2 24 -3 9 -5 26 -7 37
-4z m-7047 -36 c0 -9 135 -7 141 3 4 5 12 6 18 2 8 -4 -4 -21 -33 -46 -25 -22
-60 -62 -77 -90 -18 -27 -34 -49 -35 -49 -10 0 -73 154 -74 179 0 2 7 0 16 -3
8 -3 12 -2 9 4 -3 5 4 8 15 7 11 -1 20 -4 20 -7z m12632 -216 c-5 -10 -17 -19
-26 -20 -9 -1 -14 2 -10 7 3 5 10 6 16 3 8 -5 9 -1 5 10 -4 10 -3 15 3 11 6
-3 10 -1 10 6 0 7 3 10 6 6 3 -3 1 -13 -4 -23z m-16325 -278 c-3 -8 1 -17 10
-20 9 -4 13 -9 10 -13 -4 -3 -1 -13 6 -21 9 -13 9 -14 0 -8 -18 10 -16 -4 4
-28 10 -12 14 -18 9 -14 -5 4 -15 0 -23 -8 -14 -13 -18 -13 -41 2 -23 15 -25
15 -19 0 5 -14 3 -15 -11 -7 -12 7 -22 5 -36 -7 -11 -9 -16 -11 -12 -4 4 7 1
12 -8 12 -15 0 -15 6 -7 49 1 2 12 -4 26 -13 14 -9 25 -12 25 -7 0 5 -5 13
-10 16 -16 10 -1 25 17 18 10 -4 14 -2 10 4 -4 6 0 16 8 23 12 10 15 10 15 0
0 -14 14 -4 16 11 1 5 2 14 3 19 0 6 4 10 7 10 3 0 4 -6 1 -14z m58 -214 c-3
-3 0 -11 6 -19 9 -9 8 -17 0 -27 -7 -9 -8 -15 -2 -18 16 -5 42 -76 31 -83 -6
-3 -13 1 -16 9 -3 9 -11 13 -16 10 -6 -4 -5 2 1 14 15 29 14 37 -5 22 -12 -11
-15 -11 -12 1 2 8 -3 13 -11 11 -11 -2 -12 0 -3 11 9 11 7 19 -9 36 -19 21
-20 22 -3 19 11 -2 18 2 17 8 -1 6 5 11 13 11 8 0 12 -3 9 -5z m14228 -189
c-8 -12 -20 -20 -26 -16 -6 4 -5 10 5 17 15 11 18 17 18 39 0 8 3 8 9 -2 6 -9
4 -23 -6 -38z m-14176 23 c0 -8 -6 -12 -15 -9 -11 5 -11 7 0 14 7 5 13 9 14 9
0 0 1 -6 1 -14z m28 -43 c2 -10 4 -22 4 -26 1 -5 5 -6 10 -2 5 3 13 0 17 -7 4
-7 4 -10 -1 -6 -4 4 -14 3 -20 -2 -9 -7 -17 -5 -26 7 -9 11 -10 14 -1 9 6 -4
12 -2 12 3 0 6 -6 11 -12 12 -10 0 -10 2 -1 5 7 3 9 13 6 22 -3 9 -3 14 1 10
4 -3 9 -14 11 -25z m35 -62 c0 -5 9 -13 21 -16 20 -7 20 -7 2 -21 -17 -13 -16
-14 9 -10 24 4 38 -9 39 -34 1 -3 5 -11 11 -17 6 -7 7 -13 2 -13 -4 0 1 -7 12
-15 19 -15 19 -15 -1 -8 -18 6 -18 4 4 -20 14 -15 21 -27 17 -27 -5 0 -4 -6 1
-12 6 -7 9 -21 8 -30 -2 -10 1 -21 6 -24 6 -3 7 -14 4 -25 -4 -11 -2 -19 5
-19 6 0 9 -4 5 -9 -3 -5 -1 -12 5 -16 6 -4 8 -10 5 -15 -3 -5 -1 -11 5 -15 6
-4 8 -11 5 -16 -4 -5 -2 -9 2 -9 5 0 9 -9 10 -20 1 -11 -3 -20 -8 -20 -6 0 -8
4 -4 9 3 5 -2 17 -11 25 -11 12 -12 16 -2 16 11 0 11 2 0 9 -7 4 -12 12 -11
17 4 21 -2 28 -12 14 -9 -13 -10 -12 -5 3 7 23 -3 49 -17 40 -6 -3 -7 -1 -3 6
4 6 12 9 17 6 5 -4 9 -2 9 3 0 19 -14 21 -34 5 -21 -18 -21 -18 -4 2 15 19 15
21 -2 42 -9 12 -21 19 -25 15 -5 -4 -5 -2 -1 5 4 7 14 9 24 6 15 -6 15 -5 3
10 -7 9 -17 15 -21 12 -7 -5 -23 26 -25 47 0 3 -3 9 -7 13 -3 4 -4 18 -2 32 4
21 2 24 -8 16 -10 -8 -18 -5 -32 15 -11 14 -14 22 -6 17 8 -5 11 -3 8 6 -3 8
-11 13 -17 11 -7 -1 -10 2 -6 8 8 13 25 13 25 1z m14030 -36 c0 -2 -6 -8 -13
-14 -10 -8 -14 -7 -14 2 0 8 6 14 14 14 7 0 13 -1 13 -2z m-26 -67 c-3 -4 -9
-8 -15 -8 -5 0 -9 4 -9 8 0 5 7 9 15 9 8 0 12 -4 9 -9z m-14106 -23 c-3 -3 -9
2 -12 12 -6 14 -5 15 5 6 7 -7 10 -15 7 -18z m14073 -2 c13 -16 12 -17 -3 -4
-17 13 -22 21 -14 21 2 0 10 -8 17 -17z m-12 -77 c-3 -3 -11 5 -18 17 -13 21
-12 21 5 5 10 -10 16 -20 13 -22z m-14005 6 c3 -5 -1 -9 -9 -9 -8 0 -12 4 -9
9 3 4 7 8 9 8 2 0 6 -4 9 -8z m13977 -9 c13 -16 12 -17 -3 -4 -10 7 -18 15
-18 17 0 8 8 3 21 -13z m-13937 -11 c3 -5 -1 -9 -9 -9 -8 0 -12 4 -9 9 3 4 7
8 9 8 2 0 6 -4 9 -8z m13931 -42 c3 -6 -1 -7 -9 -4 -18 7 -21 14 -7 14 6 0 13
-4 16 -10z m-13885 -14 c0 -3 -4 -8 -10 -11 -5 -3 -10 -1 -10 4 0 6 5 11 10
11 6 0 10 -2 10 -4z m13885 -26 c-3 -5 -12 -10 -18 -10 -7 0 -6 4 3 10 19 12
23 12 15 0z m-13944 -17 c13 -16 12 -17 -3 -4 -10 7 -18 15 -18 17 0 8 8 3 21
-13z m45 -5 c12 -14 13 -18 3 -10 -9 6 -18 10 -21 7 -2 -3 -5 2 -5 10 0 19 0
19 23 -7z m13865 -5 c13 -16 12 -17 -3 -4 -10 7 -18 15 -18 17 0 8 8 3 21 -13z
m-13865 -35 c12 -14 13 -18 3 -10 -9 6 -18 10 -21 7 -2 -3 -5 2 -5 10 0 19 0
19 23 -7z m13914 18 c0 -2 -8 -10 -17 -17 -16 -13 -17 -12 -4 4 13 16 21 21
21 13z m-60 -10 c0 -2 -7 -7 -16 -10 -8 -3 -12 -2 -9 4 6 10 25 14 25 6z
m-13807 -34 c15 -16 15 -19 2 -19 -8 0 -13 3 -10 5 3 3 0 11 -6 19 -17 20 -5
16 14 -5z m13842 0 c-3 -3 -11 0 -18 7 -9 10 -8 11 6 5 10 -3 15 -9 12 -12z
m-13920 -12 c3 -5 1 -10 -4 -10 -6 0 -11 5 -11 10 0 6 2 10 4 10 3 0 8 -4 11
-10z m191 -46 c1 -9 0 -13 -4 -10 -3 4 -7 14 -8 22 -1 9 0 13 4 10 3 -4 7 -14
8 -22z m-130 4 c4 -7 3 -10 -1 -5 -5 4 -18 -1 -29 -10 -21 -18 -21 -18 -2 5
22 26 23 26 32 10z m4 -22 c0 -2 -8 -10 -17 -17 -16 -13 -17 -12 -4 4 13 16
21 21 21 13z m50 -10 c0 -2 -8 -10 -17 -17 -16 -13 -17 -12 -4 4 13 16 21 21
21 13z m20 -41 c0 -2 -6 -8 -13 -14 -10 -8 -14 -7 -14 2 0 8 6 14 14 14 7 0
13 -1 13 -2z m13721 -12 c13 -17 13 -17 -6 -3 -11 8 -22 16 -24 17 -2 2 0 3 6
3 6 0 17 -8 24 -17z m-13770 -16 c-6 -8 -8 -17 -4 -20 3 -4 1 -7 -5 -7 -15 0
-15 13 0 28 16 16 23 15 9 -1z m51 -18 c2 -2 1 -3 -1 -1 -2 1 -14 -6 -25 -15
-15 -14 -18 -14 -8 -2 6 9 9 18 6 22 -3 3 1 4 10 3 8 -1 17 -4 18 -7z m-11
-56 c13 -16 12 -17 -3 -4 -10 7 -18 15 -18 17 0 8 8 3 21 -13z m-23 -28 c-3
-3 -9 2 -12 12 -6 14 -5 15 5 6 7 -7 10 -15 7 -18z m58 -19 c0 -14 -3 -23 -7
-20 -6 3 -6 22 0 42 3 10 7 -2 7 -22z m38 6 c3 -5 -1 -9 -9 -9 -8 0 -12 4 -9
9 3 4 7 8 9 8 2 0 6 -4 9 -8z m86 -2 c0 -5 -5 -10 -11 -10 -5 0 -7 5 -4 10 3
6 8 10 11 10 2 0 4 -4 4 -10z m13520 -22 c0 -6 -3 -8 -7 -5 -3 4 -11 2 -18 -3
-8 -7 -12 -6 -12 3 0 7 9 14 19 14 10 1 18 -3 18 -9z m-13600 -2 c0 -2 -8 -10
-17 -17 -16 -13 -17 -12 -4 4 13 16 21 21 21 13z m112 -27 c2 -2 1 -3 -1 -2
-2 2 -9 -2 -16 -7 -8 -7 -12 -5 -12 4 0 12 22 16 29 5z m-175 -16 c0 -9 -4
-10 -14 -2 -7 6 -13 12 -13 14 0 1 6 2 13 2 8 0 14 -6 14 -14z m18 -41 c-3 -3
-11 0 -18 7 -9 10 -8 11 6 5 10 -3 15 -9 12 -12z m55 15 c0 -2 -10 -12 -22
-23 l-23 -19 19 23 c18 21 26 27 26 19z m-13 -79 c4 -28 -6 -18 -12 12 -2 12
-1 20 2 16 4 -4 8 -16 10 -28z m2248 -198 c4 -6 10 -8 15 -5 5 3 11 1 14 -4
12 -19 -12 -20 -34 -1 -13 11 -18 20 -12 20 6 0 14 -5 17 -10z m60 -41 c11
-16 1 -19 -13 -3 -7 8 -8 14 -3 14 5 0 13 -5 16 -11z m-75 -4 c0 -2 -6 -8 -13
-14 -10 -8 -14 -7 -14 2 0 8 6 14 14 14 7 0 13 -1 13 -2z m20 -19 c0 -2 -8
-10 -17 -17 -16 -13 -17 -12 -4 4 13 16 21 21 21 13z m-40 -22 c0 -8 -19 -13
-24 -6 -3 5 1 9 9 9 8 0 15 -2 15 -3z m60 2 c0 -2 -8 -10 -17 -17 -16 -13 -17
-12 -4 4 13 16 21 21 21 13z m20 -20 c0 -2 -8 -10 -17 -17 -16 -13 -17 -12 -4
4 13 16 21 21 21 13z m20 -20 c0 -2 -8 -10 -17 -17 -16 -13 -17 -12 -4 4 13
16 21 21 21 13z m25 -5 c3 -5 2 -12 -3 -15 -5 -3 -9 1 -9 9 0 17 3 19 12 6z
m22 -36 c0 -8 -4 -15 -9 -15 -10 0 -11 14 -1 23 9 10 10 9 10 -8z m60 -30 c0
-8 -4 -12 -9 -9 -5 3 -6 10 -3 15 9 13 12 11 12 -6z m-37 1 c0 -2 -8 -10 -17
-17 -16 -13 -17 -12 -4 4 13 16 21 21 21 13z m17 -29 c0 -8 -6 -14 -14 -14 -9
0 -10 4 -2 14 6 7 12 13 14 13 1 0 2 -6 2 -13z m-2062 -7 c3 -5 1 -10 -4 -10
-6 0 -11 5 -11 10 0 6 2 10 4 10 3 0 8 -4 11 -10z m50 -38 c15 -8 16 -11 5
-12 -18 0 -40 19 -40 35 0 7 3 6 8 -1 4 -6 16 -16 27 -22z m40 -11 c-3 -5 -1
-12 5 -16 13 -8 13 -25 0 -25 -5 0 -9 6 -7 13 1 7 -6 11 -18 9 l-20 -4 20 16
c23 18 28 20 20 7z m2026 -18 c13 -16 12 -17 -3 -4 -10 7 -18 15 -18 17 0 8 8
3 21 -13z m64 -12 c3 -5 2 -12 -3 -15 -5 -3 -9 1 -9 9 0 17 3 19 12 6z m-1983
-40 c-5 -14 -3 -14 10 -3 14 11 19 9 32 -10 9 -12 16 -19 16 -14 0 5 8 2 18
-7 10 -10 21 -14 24 -11 3 3 9 1 12 -5 4 -6 -2 -8 -15 -6 -13 3 -26 10 -31 17
-6 10 -8 10 -9 -2 0 -10 -2 -11 -6 -2 -2 6 -9 10 -14 7 -5 -4 -20 5 -34 19
-13 14 -27 20 -30 15 -4 -5 -11 -7 -16 -3 -15 9 -2 20 24 20 18 0 23 -4 19
-15z m49 -164 c-1 -12 -15 -9 -19 4 -3 6 1 10 8 8 6 -3 11 -8 11 -12z"/>
<path d="M17794 13985 c13 -10 13 -14 -5 -31 -19 -20 -19 -20 1 -21 11 -1 18
2 15 8 -4 5 -3 15 2 22 14 22 11 33 -9 33 -17 0 -17 -2 -4 -11z"/>
<path d="M17795 13910 c3 -5 8 -10 11 -10 2 0 4 5 4 10 0 6 -5 10 -11 10 -5 0
-7 -4 -4 -10z"/>
<path d="M17744 13879 c-8 -14 14 -19 25 -6 8 10 7 14 -5 14 -8 0 -17 -4 -20
-8z"/>
<path d="M17709 13765 c-1 -3 -2 -8 -3 -12 -1 -5 -5 -15 -10 -23 -7 -12 -6
-13 4 -3 13 12 23 43 14 43 -2 0 -5 -2 -5 -5z"/>
<path d="M1600 11250 c-9 -6 -10 -10 -3 -10 6 0 15 5 18 10 8 12 4 12 -15 0z"/>
<path d="M1545 11161 c-3 -5 -2 -12 3 -15 5 -3 9 1 9 9 0 17 -3 19 -12 6z"/>
<path d="M211 8721 c-8 -5 -9 -11 -3 -15 5 -3 12 1 16 9 6 17 6 18 -13 6z"/>
<path d="M19060 8333 l-31 -28 23 -14 c22 -13 22 -13 8 4 -13 16 -12 20 15 41
17 13 27 24 23 24 -4 0 -21 -12 -38 -27z"/>
<path d="M19025 8241 c3 -2 0 -10 -6 -18 -6 -7 -8 -13 -4 -13 4 0 1 -8 -6 -17
-13 -16 -12 -17 3 -5 10 8 16 18 15 22 -1 5 6 15 16 22 18 13 17 14 -2 14 -11
0 -18 -2 -16 -5z"/>
<path d="M13200 8180 c-9 -6 -10 -10 -3 -10 6 0 15 5 18 10 8 12 4 12 -15 0z"/>
<path d="M2549 7763 c-1 -5 -1 -11 0 -15 0 -5 -4 -8 -10 -8 -5 0 -8 -4 -4 -9
3 -5 1 -12 -4 -16 -6 -3 -8 5 -5 20 2 14 0 25 -5 25 -6 0 -8 -9 -6 -20 4 -23
-5 -26 -25 -7 -12 10 -12 9 -1 -5 7 -9 9 -23 5 -30 -5 -10 -4 -10 6 -1 10 9
18 8 35 -3 19 -12 24 -12 34 -1 9 11 8 17 -4 27 -13 11 -13 15 -3 21 10 7 10
9 -2 9 -13 0 -13 1 0 10 10 6 11 10 3 10 -7 0 -14 -3 -14 -7z m16 -63 c-3 -5
-13 -6 -21 -3 -12 4 -13 8 -3 14 15 9 32 2 24 -11z"/>
<path d="M2443 7705 c0 -7 7 -11 15 -7 11 4 13 1 7 -8 -5 -9 -4 -11 3 -6 16
10 15 14 -6 25 -14 7 -19 6 -19 -4z"/>
<path d="M2595 7560 c-4 -6 -3 -16 3 -22 6 -6 12 -6 17 2 4 6 3 16 -3 22 -6 6
-12 6 -17 -2z"/>
<path d="M2778 7243 c-4 -7 -3 -30 2 -35 1 -2 3 -11 5 -21 2 -11 5 -20 7 -21
2 0 14 -10 28 -21 l25 -20 -20 24 c-11 13 -21 32 -21 42 -1 10 -3 21 -4 24 -1
3 -3 9 -4 14 -2 14 -14 23 -18 14z"/>
<path d="M2826 7112 c-3 -5 1 -15 8 -21 11 -10 14 -9 12 3 -3 21 -13 29 -20
18z"/>
<path d="M3474 5919 c-4 -7 -3 -9 4 -5 5 3 13 0 15 -6 4 -9 6 -10 6 -1 1 17
-16 25 -25 12z"/>
<path d="M1465 14681 c-3 -5 -2 -12 3 -15 5 -3 9 1 9 9 0 17 -3 19 -12 6z"/>
<path d="M1464 14546 c3 -10 1 -26 -6 -35 -12 -14 -11 -15 7 -1 11 8 21 14 22
15 1 0 -6 9 -14 20 -14 18 -15 18 -9 1z"/>
<path d="M1553 14028 c3 -9 1 -19 -6 -22 -9 -3 -8 -5 1 -5 9 -1 10 -6 3 -19
-5 -10 -6 -24 -1 -32 5 -8 4 -22 -1 -32 -7 -14 -6 -18 6 -18 9 0 14 4 11 8 -2
4 -1 14 3 21 6 9 11 10 15 2 4 -6 3 -11 -3 -11 -5 0 -8 -8 -6 -17 2 -10 4 -20
4 -23 1 -3 6 2 11 10 9 13 10 13 10 0 0 -12 2 -12 9 -1 6 9 11 10 15 2 4 -6 2
-11 -3 -11 -6 0 -11 -4 -11 -10 0 -11 22 -9 31 3 3 5 9 1 12 -8 5 -11 3 -14
-5 -9 -8 5 -9 2 -5 -10 4 -10 7 -20 7 -22 0 -2 5 -4 11 -4 5 0 7 5 3 11 -4 8
0 8 15 0 16 -9 21 -9 21 0 0 7 3 9 6 6 4 -4 1 -14 -7 -24 -12 -15 -12 -16 3
-10 10 3 20 2 23 -4 4 -5 12 -6 18 -3 8 5 8 3 0 -7 -17 -17 -17 -34 0 -21 10
8 13 6 14 -11 2 -15 0 -18 -6 -8 -6 9 -11 10 -15 2 -4 -6 -3 -11 2 -11 5 0 9
-7 10 -15 1 -8 3 -22 4 -30 1 -8 5 -15 10 -15 5 0 6 -5 2 -11 -4 -8 -9 -7 -15
2 -6 9 -9 10 -9 2 0 -6 7 -19 16 -27 18 -18 11 -21 -16 -6 -15 8 -18 7 -14 -3
6 -16 55 -18 67 -2 5 6 7 3 3 -7 -3 -10 0 -18 6 -18 6 0 8 -3 5 -6 -4 -4 -13
-1 -21 5 -12 10 -15 9 -13 -7 1 -13 8 -20 19 -19 10 1 18 5 18 9 0 5 11 2 24
-7 16 -11 22 -23 20 -40 -1 -14 2 -25 7 -25 5 0 9 -4 9 -10 0 -6 -6 -9 -12 -7
-8 1 -12 -7 -11 -20 2 -13 -2 -23 -8 -23 -5 0 -7 5 -3 12 4 6 3 8 -4 4 -6 -3
-14 -1 -18 5 -4 7 -3 9 4 5 7 -4 10 1 9 14 -2 24 -12 26 -21 5 -6 -17 2 -45
13 -45 4 0 13 -12 19 -26 7 -15 17 -22 24 -18 8 5 9 2 5 -10 -4 -10 -1 -19 8
-22 8 -4 15 -13 15 -22 0 -8 17 -32 39 -53 21 -21 36 -41 33 -44 -3 -3 0 -5 6
-5 6 0 9 -7 6 -15 -4 -8 -2 -15 4 -15 5 0 8 -14 7 -31 -2 -17 3 -33 10 -35 7
-3 13 -17 13 -31 0 -14 7 -30 15 -35 9 -4 14 -17 12 -28 -2 -11 1 -19 8 -17 7
1 11 -6 11 -15 -1 -10 2 -15 7 -12 5 3 9 -2 9 -10 0 -19 16 -22 18 -3 2 24 8
47 15 53 3 4 2 15 -4 26 -6 11 -8 22 -5 26 10 9 -35 51 -49 46 -9 -4 -12 3
-11 20 0 14 6 26 11 26 6 0 2 5 -8 11 -9 6 -14 15 -11 21 4 7 2 8 -4 4 -7 -4
-12 -4 -13 1 0 4 -2 16 -4 25 -2 10 1 21 7 24 5 4 0 16 -12 29 -13 13 -19 29
-15 35 5 9 1 10 -13 6 -26 -9 -37 8 -17 27 13 13 13 16 -1 21 -8 3 -13 10 -9
15 3 6 -3 9 -14 8 -10 0 -24 -9 -30 -19 -13 -20 -8 -22 18 -9 13 7 18 6 18 -4
0 -8 -4 -12 -9 -9 -5 3 -15 0 -23 -6 -15 -12 -20 -4 -16 23 0 4 -4 7 -10 7 -5
0 -7 5 -3 11 4 8 9 7 15 -2 6 -10 9 -10 9 -2 0 21 -23 27 -35 9 -11 -15 -13
-15 -19 -1 -4 11 -2 14 6 9 7 -5 8 -3 3 6 -5 9 -4 11 3 6 8 -5 10 -1 6 11 -4
14 -3 15 4 4 7 -9 12 -10 16 -2 4 6 2 11 -3 11 -6 0 -11 5 -11 11 0 8 4 9 13
0 8 -6 16 -10 18 -8 2 1 1 -2 -3 -7 -14 -17 -8 -29 7 -16 14 12 19 7 16 -13
-1 -5 3 -5 9 -2 14 9 -12 50 -31 50 -8 0 -14 7 -14 15 0 8 -4 21 -8 28 -5 6
-6 16 -2 21 3 6 -3 14 -12 20 -10 6 -14 11 -9 11 5 0 3 7 -4 15 -10 13 -15 13
-21 3 -5 -9 -11 -4 -18 15 -7 17 -16 25 -25 21 -8 -3 -17 -1 -21 5 -3 6 -2 11
3 11 6 0 13 7 16 16 3 8 2 13 -3 10 -10 -6 -25 24 -16 32 3 3 5 0 5 -6 0 -7 5
-12 11 -12 8 0 7 5 -2 16 -7 8 -13 28 -14 43 -2 32 -13 53 -25 46 -4 -3 -11 2
-14 11 -3 8 -2 12 3 9 5 -3 12 -2 15 3 5 9 -10 12 -51 12 -13 0 -24 8 -28 20
-6 18 -39 44 -57 45 -7 0 -10 8 -7 18 6 21 5 37 -2 37 -6 0 -7 6 -3 13 6 9 4
9 -8 -1 -19 -16 -36 2 -20 21 7 8 6 18 -5 32 -12 15 -14 16 -10 3z m15 -83
c-3 -3 -9 2 -12 12 -6 14 -5 15 5 6 7 -7 10 -15 7 -18z m26 -1 c3 -8 2 -12 -4
-9 -6 3 -10 10 -10 16 0 14 7 11 14 -7z m367 -593 c36 -34 41 -42 30 -55 -8
-10 -9 -16 -3 -16 6 0 9 -9 7 -20 -2 -11 1 -20 7 -20 5 0 7 -7 4 -15 -3 -9 1
-18 9 -22 9 -3 13 -13 11 -22 -7 -21 11 -50 22 -35 4 6 13 4 24 -7 12 -13 13
-19 5 -23 -9 -3 -8 -7 2 -14 11 -8 9 -11 -8 -17 -12 -3 -18 -11 -15 -17 4 -5
9 -6 13 -2 3 5 13 10 21 12 11 1 9 -2 -4 -13 -22 -16 -49 -3 -40 19 3 8 -2 16
-10 19 -10 4 -13 13 -9 23 5 13 3 15 -7 9 -8 -5 -11 -4 -7 3 9 13 -2 44 -12
37 -5 -2 -7 8 -6 23 1 15 -1 32 -4 37 -3 6 -6 16 -8 24 -1 8 -14 25 -30 37
-15 13 -22 23 -15 24 7 0 10 5 7 10 -4 6 -10 8 -15 5 -15 -10 -29 21 -21 50 2
9 8 5 52 -34z"/>
<path d="M1914 13363 c2 -10 7 -18 12 -18 17 0 34 -16 28 -27 -7 -11 16 -29
28 -22 14 9 9 26 -6 21 -9 -4 -13 -1 -11 6 2 7 -9 22 -25 35 -24 19 -28 20
-26 5z"/>
<path d="M2039 13123 c-7 -10 -9 -15 -5 -11 5 4 14 0 21 -9 11 -14 12 -13 10
5 -2 31 -10 35 -26 15z"/>
<path d="M1553 13865 c0 -14 3 -25 7 -25 3 0 13 -11 20 -25 7 -13 16 -22 20
-20 9 6 22 -21 25 -49 1 -11 7 -22 13 -24 7 -2 12 -8 12 -13 0 -6 -6 -7 -12
-3 -9 5 -9 3 1 -9 7 -9 17 -14 22 -11 5 3 9 1 9 -5 0 -5 -5 -13 -10 -16 -6 -4
-2 -18 11 -36 11 -16 25 -27 30 -24 5 4 9 -3 9 -14 0 -12 5 -21 11 -21 5 0 7
5 3 11 -3 6 8 4 24 -5 22 -11 30 -22 27 -36 -2 -11 0 -20 6 -20 5 0 9 -5 9
-11 0 -5 -5 -7 -12 -3 -7 5 -8 3 -3 -5 6 -10 3 -11 -12 -2 -11 6 -23 7 -27 4
-3 -3 -6 -1 -6 5 0 6 8 13 18 16 10 4 19 13 19 21 0 19 -7 19 -22 -2 -9 -13
-14 -13 -20 -3 -5 9 -4 11 3 6 7 -4 12 -2 12 3 0 6 -7 11 -15 11 -12 0 -14 -7
-9 -27 3 -16 6 -34 6 -40 1 -9 5 -10 15 -2 9 9 13 8 13 0 0 -7 5 -9 10 -6 6 3
13 -1 17 -11 5 -13 9 -9 17 17 10 32 44 50 38 21 -1 -8 2 -11 7 -8 17 11 5 39
-17 41 -12 1 -18 -3 -15 -8 3 -6 1 -7 -6 -3 -9 6 -9 11 0 22 13 16 23 19 14 4
-8 -13 5 -13 25 0 8 5 11 10 5 11 -40 6 -54 5 -49 -2 9 -16 -10 -9 -36 11 -19
16 -20 19 -5 13 17 -6 18 -5 5 9 -12 12 -18 13 -29 4 -8 -6 -12 -6 -9 -1 4 6
1 21 -6 34 -9 15 -16 20 -20 12 -4 -6 -13 -11 -19 -11 -7 0 -6 4 3 10 11 7 11
10 2 10 -7 0 -10 5 -6 11 4 8 9 7 15 -2 5 -8 9 -10 9 -6 0 4 9 3 20 -3 16 -9
18 -8 14 5 -4 9 -9 14 -12 11 -5 -6 -62 21 -62 30 0 2 9 0 20 -6 16 -8 18 -8
14 4 -3 9 -9 15 -12 14 -18 -2 -29 3 -30 15 -3 32 -11 52 -20 50 -11 -3 -10
22 2 34 4 4 6 1 4 -7 -2 -9 3 -14 13 -12 9 1 19 -4 22 -13 4 -8 12 -12 20 -9
16 6 19 -25 4 -44 -8 -10 -7 -13 4 -10 8 1 14 -1 14 -7 0 -5 -3 -9 -7 -8 -4 2
-5 -3 -2 -11 3 -8 12 -13 19 -12 17 3 32 16 18 16 -5 0 -10 7 -11 15 -1 8 -3
22 -4 30 -1 8 -6 15 -11 15 -5 0 -4 7 3 15 7 8 9 16 4 16 -5 1 -13 2 -19 4 -5
1 -17 3 -25 4 -13 1 -13 2 0 12 12 8 10 9 -7 4 -17 -5 -25 0 -37 22 -8 16 -16
21 -16 13 0 -9 -6 -5 -15 10 -13 24 -14 24 -12 3 1 -21 9 -27 30 -24 14 2 7
-17 -9 -23 -24 -9 -31 -7 -14 5 13 9 13 10 -2 6 -13 -5 -16 -1 -13 14 3 16 0
19 -12 15 -12 -5 -13 -4 -5 7 7 8 9 17 5 20 -13 13 -20 7 -20 -18z m91 -121
c3 -8 2 -12 -4 -9 -6 3 -10 10 -10 16 0 14 7 11 14 -7z m69 -118 c6 -15 -17
-16 -30 -1 -4 4 -2 5 5 1 6 -4 12 -2 12 3 0 15 7 14 13 -3z"/>
<path d="M1653 13774 c0 -8 4 -14 9 -14 4 0 7 -3 7 -7 -4 -27 1 -35 16 -23 20
16 19 22 -9 42 -18 13 -23 14 -23 2z"/>
<path d="M17625 13593 c3 -3 0 -11 -5 -18 -7 -8 -5 -12 4 -12 14 0 16 22 3 32
-4 3 -5 2 -2 -2z"/>
<path d="M2124 12625 c0 -13 3 -22 7 -19 8 4 6 30 -2 38 -3 3 -5 -5 -5 -19z"/>
<path d="M2120 12550 c12 -8 10 -10 -8 -10 -13 0 -20 -4 -17 -10 4 -7 13 -7
26 0 24 13 25 30 2 30 -15 0 -16 -2 -3 -10z"/>
<path d="M2079 12503 c-7 -7 -8 -13 -4 -13 4 0 3 -6 -4 -13 -6 -8 -9 -24 -6
-36 3 -16 0 -21 -10 -18 -10 4 -12 -1 -9 -19 3 -15 0 -24 -8 -24 -8 0 -9 -3
-3 -8 6 -4 17 -16 25 -26 12 -16 12 -18 1 -11 -10 5 -12 4 -7 -3 5 -8 1 -10
-11 -6 -11 3 -14 2 -8 -3 15 -12 12 -39 -5 -35 -11 3 -11 0 1 -14 12 -15 12
-17 0 -9 -10 6 -12 4 -6 -5 6 -9 4 -11 -5 -5 -8 5 -11 4 -7 -2 4 -6 -6 -9 -22
-8 -16 1 -28 -4 -28 -11 0 -7 10 -11 26 -8 l26 4 -26 -15 c-15 -8 -29 -22 -33
-30 -3 -9 -2 -13 4 -10 6 3 10 2 10 -4 0 -5 -5 -11 -12 -13 -8 -3 -6 -7 4 -10
10 -4 24 2 35 14 17 19 17 20 -1 17 -11 -2 -21 3 -23 11 -4 12 -3 12 5 1 8
-10 12 -9 24 8 8 11 18 18 23 13 5 -4 5 -1 1 5 -4 7 4 28 20 48 15 20 21 35
14 35 -10 0 -10 3 0 15 7 8 16 12 21 9 8 -5 11 3 8 22 -2 13 26 23 37 13 9 -7
16 -5 23 9 6 11 7 22 4 26 -3 3 -1 6 7 6 10 0 10 3 0 15 -7 8 -9 15 -5 15 4 0
2 6 -4 13 -6 8 -8 16 -5 20 3 3 7 16 8 29 2 20 -2 23 -31 24 -18 0 -38 -6 -44
-13z m44 -13 c4 0 5 6 1 13 -6 8 -3 8 9 -2 13 -10 14 -18 6 -32 -5 -11 -14
-17 -20 -14 -14 10 -11 -7 10 -41 12 -20 16 -36 10 -45 -7 -12 -9 -12 -9 0 0
8 -6 11 -16 7 -9 -4 -13 -2 -8 5 4 7 1 10 -7 7 -8 -3 -13 -15 -13 -27 1 -21 0
-21 -17 -5 -15 14 -17 20 -7 32 7 8 13 29 15 46 1 17 4 40 7 51 2 11 5 22 5
25 1 2 6 -1 13 -8 7 -7 16 -12 21 -12z m24 -65 c0 -8 -4 -12 -9 -9 -4 3 -8 9
-8 15 0 5 4 9 8 9 5 0 9 -7 9 -15z"/>
<path d="M2092 12487 c-1 -6 -3 -28 -5 -48 -1 -20 -8 -43 -15 -52 -10 -12 -10
-17 -1 -23 7 -4 9 -3 6 3 -12 20 19 36 45 23 22 -11 22 -10 4 4 -11 9 -16 16
-12 16 5 0 1 11 -8 25 -16 24 -12 30 16 27 3 -1 9 5 12 14 3 9 2 12 -5 9 -5
-4 -16 -2 -23 4 -9 8 -13 7 -14 -2z"/>
<path d="M17323 12403 c4 -3 1 -13 -6 -22 -11 -14 -10 -14 5 -2 16 12 16 31 1
31 -4 0 -3 -3 0 -7z"/>
<path d="M17354 12368 c-3 -4 -1 -8 5 -8 5 0 8 -8 6 -17 -2 -10 -4 -18 -5 -18
-9 0 -5 -35 5 -39 9 -3 12 3 10 22 -2 23 -1 24 10 8 8 -11 15 -13 20 -7 3 6 2
11 -3 11 -5 0 -9 8 -9 18 0 9 -1 22 -2 28 -1 13 -30 14 -37 2z m33 -23 c0 -8
-4 -12 -9 -9 -5 3 -6 10 -3 15 9 13 12 11 12 -6z"/>
<path d="M1998 12314 c-16 -25 -23 -42 -16 -38 8 5 9 2 5 -10 -6 -14 -4 -15
16 -5 20 12 21 12 3 19 -18 6 -18 7 -2 13 10 4 22 4 28 1 6 -4 5 3 -1 15 -10
17 -9 22 4 27 8 3 12 10 9 15 -10 16 -19 9 -46 -37z"/>
<path d="M17323 12345 c0 -8 4 -12 9 -9 5 3 6 10 3 15 -9 13 -12 11 -12 -6z"/>
<path d="M17366 12262 c-3 -5 1 -15 8 -21 11 -10 14 -9 12 3 -3 21 -13 29 -20
18z"/>
<path d="M17433 12123 c4 -3 3 -11 -3 -17 -6 -8 -3 -12 9 -12 12 0 17 6 13 18
-2 10 -9 18 -15 18 -6 0 -7 -3 -4 -7z"/>
<path d="M1905 11930 c4 -6 11 -8 16 -5 14 9 11 15 -7 15 -8 0 -12 -5 -9 -10z"/>
<path d="M17974 11045 c3 -19 41 -47 51 -37 4 4 3 -3 -4 -15 -14 -27 -14 -30
2 -30 6 0 18 -2 26 -4 7 -2 16 2 18 9 3 7 1 12 -4 11 -19 -3 -33 2 -33 12 0 5
4 7 10 4 6 -3 7 1 4 9 -3 9 -10 16 -15 16 -5 0 -8 3 -8 8 4 22 -4 32 -25 32
-16 0 -23 -5 -22 -15z m42 -18 c1 -9 -2 -15 -7 -11 -5 3 -6 10 -3 16 5 8 1 9
-10 5 -11 -4 -15 -3 -11 4 10 14 28 6 31 -14z"/>
<path d="M1470 11033 c0 -5 -7 -10 -15 -11 -8 -1 -22 -3 -30 -4 -9 -1 -11 -6
-7 -12 14 -18 12 -53 -3 -53 -8 0 -11 7 -7 16 3 9 2 13 -3 9 -4 -4 -16 -3 -25
2 -13 7 -21 5 -30 -5 -7 -8 -9 -15 -4 -15 4 0 -3 -11 -16 -25 -13 -14 -19 -25
-14 -25 5 0 4 -4 -2 -8 -14 -9 -49 -74 -46 -84 1 -5 -5 -8 -14 -8 -9 0 -14 -6
-11 -13 3 -7 -4 -19 -14 -25 -10 -7 -19 -19 -19 -27 0 -8 -5 -15 -10 -15 -6 0
-15 -11 -22 -25 -6 -13 -15 -22 -19 -19 -5 3 -6 -3 -2 -12 4 -12 3 -15 -5 -10
-20 12 -14 -2 11 -24 20 -20 20 -21 2 -15 -14 5 -16 4 -7 -2 11 -8 10 -12 -1
-21 -12 -10 -14 -8 -12 12 2 14 -3 30 -11 37 -12 10 -13 8 -5 -14 8 -19 7 -29
-2 -34 -19 -12 -34 -46 -32 -70 1 -13 -11 -37 -25 -55 -25 -30 -29 -31 -46
-18 -18 14 -18 14 -5 -2 8 -11 9 -18 3 -18 -6 0 -10 -8 -9 -19 1 -12 8 -18 22
-17 11 1 19 8 17 15 -2 8 0 21 3 30 5 12 8 13 14 2 6 -9 11 -10 15 -2 4 6 2
11 -4 11 -6 0 -4 10 6 25 9 14 21 22 28 18 6 -4 6 0 -2 9 -11 13 -10 16 5 14
18 -1 25 29 11 50 -6 8 0 10 15 9 14 -2 30 1 38 6 12 7 12 9 -1 9 -11 1 -10 4
5 16 11 8 20 18 20 22 1 4 6 17 13 29 13 24 12 44 -2 55 -5 3 3 5 18 5 24 -2
25 -3 9 -14 -10 -8 -12 -13 -4 -13 7 0 9 -5 5 -12 -5 -9 -2 -8 9 1 10 8 15 16
12 19 -3 3 2 13 10 22 14 16 14 18 -1 24 -11 4 -15 2 -11 -8 4 -9 0 -13 -11
-11 -9 2 -20 4 -24 4 -5 1 -8 6 -8 12 0 8 5 8 15 -1 9 -8 15 -8 15 -2 0 6 -6
13 -12 16 -7 3 2 3 20 0 24 -3 31 -1 26 7 -4 7 -2 10 7 7 21 -8 49 10 42 28
-3 8 -2 14 3 13 21 -4 31 2 31 17 0 14 -2 14 -14 -2 -10 -13 -13 -14 -13 -3
-1 10 -3 10 -11 -3 -6 -11 -16 -15 -27 -11 -15 6 -15 5 -3 -10 8 -10 11 -20 7
-24 -3 -3 -6 -1 -6 6 0 7 -4 10 -8 7 -5 -3 -9 2 -9 10 0 16 50 47 60 37 3 -3
5 4 4 16 -2 26 -9 27 -25 1 -13 -21 -32 -27 -32 -10 0 6 6 9 13 8 6 -2 11 5
11 14 -1 10 1 17 5 16 3 0 13 0 21 1 12 1 13 3 1 10 -9 6 -10 11 -2 15 6 4 11
2 11 -3 0 -6 5 -11 11 -11 5 0 7 5 3 11 -4 8 0 8 15 0 25 -14 28 -23 4 -14
-10 4 -14 2 -9 -5 3 -6 -1 -15 -10 -20 -14 -8 -14 -10 4 -15 12 -3 26 1 33 9
6 8 8 14 4 14 -4 0 -2 6 4 14 9 10 8 16 -4 26 -19 16 -4 29 30 25 22 -2 28 15
12 31 -13 14 -7 26 10 20 10 -4 14 -4 10 0 -4 4 -2 13 5 21 6 7 8 16 4 20 -3
3 -6 2 -6 -4z m-83 -87 c-3 -6 3 -20 12 -30 16 -19 16 -19 -14 0 -16 10 -32
17 -35 16 -3 -2 -12 -9 -20 -15 -8 -6 -4 1 9 16 14 15 21 27 17 27 -4 0 -4 5
-1 10 9 14 37 -8 32 -24z m-110 -151 c0 -8 -6 -16 -14 -19 -15 -6 -13 15 2 26
6 4 10 8 11 8 0 0 1 -7 1 -15z m-64 -90 c4 -8 2 -17 -4 -20 -5 -4 -7 -10 -4
-15 3 -5 1 -11 -5 -15 -6 -4 -7 -11 -4 -17 4 -7 2 -8 -5 -4 -6 4 -8 12 -5 18
5 7 1 9 -9 5 -11 -4 -14 -2 -10 8 3 8 9 13 13 10 4 -3 14 3 21 12 12 15 12 16
-3 10 -12 -4 -15 -2 -11 9 7 18 19 18 26 -1z m-91 -142 c-10 -4 -10 -8 0 -21
12 -15 11 -16 -4 -3 -19 14 -15 32 5 30 8 0 8 -2 -1 -6z m-79 -137 c4 -10 1
-13 -8 -9 -8 3 -12 9 -9 14 7 12 11 11 17 -5z"/>
<path d="M1362 10965 c4 -4 3 -14 -4 -22 -8 -11 -7 -12 6 -7 19 7 21 20 4 30
-7 4 -10 4 -6 -1z"/>
<path d="M17980 11000 c-8 -5 -11 -12 -7 -17 5 -4 12 -1 17 7 6 9 10 10 10 3
0 -7 -8 -17 -17 -22 -11 -6 -13 -11 -5 -11 7 0 12 -6 10 -14 -2 -8 2 -15 7
-14 6 0 9 4 8 9 -2 4 3 6 11 3 15 -6 16 -20 2 -44 -5 -8 -6 -12 -1 -8 4 4 20
1 36 -7 15 -8 31 -15 36 -15 10 0 -16 25 -27 26 -6 1 -14 2 -19 3 -11 1 -9 27
3 38 4 4 7 4 6 -2 -5 -21 0 -36 10 -30 6 4 8 10 5 15 -3 5 3 13 12 19 14 8 11
9 -14 6 -18 -2 -33 1 -33 6 0 5 -3 8 -7 8 -27 -4 -35 1 -23 16 16 20 1 38 -20
25z"/>
<path d="M18080 10920 c11 -7 12 -10 2 -10 -10 0 -9 -4 2 -16 9 -8 14 -20 10
-25 -6 -11 -36 -8 -45 5 -4 4 -10 3 -13 -3 -4 -6 -1 -11 6 -11 9 0 10 -3 2 -8
-7 -4 1 -19 24 -42 19 -19 31 -29 28 -22 -4 6 -2 12 3 12 10 0 12 -4 15 -40 1
-8 7 -14 13 -13 7 2 20 -8 30 -20 18 -23 24 -27 44 -27 5 0 8 -4 5 -9 -7 -11
28 -43 37 -34 6 6 11 -11 8 -29 0 -5 2 -7 7 -6 14 5 48 -27 47 -44 0 -10 5
-18 10 -18 13 0 14 21 1 40 -9 13 -8 13 5 3 9 -7 19 -10 22 -6 4 3 7 1 7 -5 0
-7 -4 -12 -8 -12 -11 0 -10 -66 1 -76 5 -5 6 4 3 19 -2 14 0 29 5 33 5 3 6 10
3 16 -4 6 -2 8 4 5 11 -7 11 -25 0 -42 -4 -6 -3 -17 3 -25 5 -8 9 -13 10 -10
8 49 5 67 -13 92 -16 24 -26 28 -47 24 -25 -5 -25 -5 -4 6 22 10 22 12 5 27
-10 9 -26 28 -36 43 -12 18 -23 25 -33 21 -12 -5 -14 -2 -9 8 4 8 0 5 -8 -5
-19 -23 -21 -14 -4 17 10 19 9 20 -4 10 -8 -7 -19 -9 -23 -5 -5 4 -5 -1 -2
-10 4 -12 2 -15 -9 -11 -11 4 -12 9 -3 19 6 8 15 11 20 8 5 -3 9 0 9 5 0 6 -4
11 -10 11 -5 0 -10 9 -10 19 0 11 -9 23 -20 26 -11 4 -17 11 -14 17 5 7 2 8
-6 3 -8 -5 -11 -3 -8 6 6 17 -48 99 -65 99 -7 0 -6 -4 3 -10z m50 -85 c-6 -7
1 -17 21 -29 16 -9 27 -21 24 -26 -3 -5 -1 -12 5 -15 8 -5 7 -11 -1 -21 -10
-13 -14 -12 -29 1 -9 8 -20 12 -25 8 -4 -5 -5 -2 -1 5 4 7 11 10 16 7 5 -3 8
4 7 15 -1 21 -17 29 -17 9 0 -7 -9 0 -21 15 -11 14 -25 26 -31 26 -6 0 -5 -7
3 -17 13 -16 12 -17 -3 -4 -10 7 -15 17 -12 22 3 5 0 9 -6 9 -6 0 -8 5 -4 11
4 8 9 7 14 -2 11 -17 44 15 35 33 -4 7 2 2 13 -12 13 -15 17 -29 12 -35z m123
-142 c-4 -10 -2 -14 4 -10 5 3 20 -8 33 -25 12 -17 18 -28 12 -24 -6 3 -12 1
-14 -5 -2 -7 -9 -5 -17 5 -12 14 -12 16 4 10 15 -6 16 -5 4 15 -8 12 -16 16
-17 11 -2 -6 -10 -3 -18 7 -13 17 -14 17 -8 -2 3 -12 2 -16 -3 -10 -4 6 -12
13 -17 17 -7 6 14 19 41 27 1 1 -1 -6 -4 -16z"/>
<path d="M18101 10846 c-8 -10 -6 -17 11 -32 14 -11 18 -13 11 -3 -9 11 -9 19
-2 26 7 7 7 13 1 17 -5 3 -15 0 -21 -8z"/>
<path d="M18156 10761 c-4 -5 -2 -12 3 -15 5 -4 12 -2 15 3 4 5 2 12 -3 15 -5
4 -12 2 -15 -3z"/>
<path d="M18386 10532 c-2 -4 -1 -14 3 -21 6 -10 10 -9 14 3 6 16 -8 32 -17
18z"/>
<path d="M18405 10492 c-21 -14 -2 -57 21 -48 12 4 12 2 4 -14 -8 -15 -6 -21
10 -30 11 -6 19 -15 17 -19 -2 -9 3 -11 26 -11 6 0 4 5 -6 11 -9 6 -15 14 -12
18 2 5 -2 14 -10 21 -7 6 -11 18 -8 26 5 13 -8 19 -30 15 -5 -1 -6 8 -2 19 7
22 5 24 -10 12z m50 -82 c3 -6 -1 -7 -9 -4 -18 7 -21 14 -7 14 6 0 13 -4 16
-10z"/>
<path d="M964 10382 c3 -6 2 -13 -3 -16 -5 -4 -8 -14 -6 -24 1 -9 -2 -25 -7
-34 -6 -13 -5 -16 6 -12 8 3 13 14 11 26 -3 15 0 18 13 13 9 -3 13 -3 9 1 -4
4 -2 13 4 20 8 9 5 16 -12 24 -12 7 -19 8 -15 2z"/>
<path d="M913 10280 c-1 -11 2 -20 5 -20 4 0 8 9 9 20 1 11 -2 20 -5 20 -4 0
-8 -9 -9 -20z"/>
<path d="M906 10234 c-5 -14 -4 -15 9 -4 17 14 19 20 6 20 -5 0 -12 -7 -15
-16z"/>
<path d="M853 10165 c0 -8 4 -12 9 -9 5 3 6 10 3 15 -9 13 -12 11 -12 -6z"/>
<path d="M298 9531 c4 -10 1 -12 -8 -6 -8 5 -11 4 -6 -3 3 -6 -4 -18 -16 -26
-12 -9 -17 -16 -10 -16 6 0 12 -5 12 -11 0 -5 -4 -8 -9 -5 -5 3 -14 -1 -21 -9
-10 -12 -10 -15 0 -15 10 0 10 -3 0 -15 -7 -8 -9 -15 -6 -15 4 0 0 -7 -8 -16
-16 -15 -21 -34 -10 -34 20 0 45 24 40 38 -5 13 -3 13 9 -2 8 -11 18 -16 22
-12 5 4 -1 15 -12 24 -21 18 -35 59 -16 47 6 -3 11 -14 11 -23 0 -14 2 -15 10
-2 6 9 5 17 -3 22 -7 4 -8 8 -2 8 6 0 16 -5 22 -11 9 -9 12 -7 10 10 -1 12 -6
20 -12 17 -7 -2 -12 2 -12 10 0 14 23 14 45 1 6 -5 12 -14 11 -20 0 -9 -2 -8
-6 1 -2 6 -9 9 -14 6 -6 -3 -2 -12 8 -20 10 -8 14 -14 8 -13 -24 3 -27 -2 -9
-16 19 -14 19 -15 -3 -21 -25 -7 -30 -19 -12 -29 16 -11 46 22 43 48 -1 12 -3
22 -4 22 -1 0 -3 15 -4 34 -2 19 -10 39 -20 46 -13 10 -14 14 -4 18 7 3 3 4
-8 4 -15 -1 -20 -6 -16 -16z m36 -27 c5 -13 4 -14 -7 -6 -8 7 -18 8 -22 4 -5
-4 -5 -1 -1 6 10 17 23 15 30 -4z m6 -109 c-7 -8 -17 -15 -23 -15 -6 0 -2 7 9
15 25 19 30 19 14 0z m-90 -4 c0 -5 -7 -12 -16 -15 -14 -5 -15 -4 -4 9 14 17
20 19 20 6z"/>
<path d="M287 9426 c-4 -9 -1 -18 5 -22 7 -5 8 -2 3 6 -6 9 -2 10 16 5 13 -4
22 -6 19 -3 -34 27 -38 28 -43 14z"/>
<path d="M250 9361 c-5 -9 -11 -15 -14 -13 -14 6 -24 1 -30 -14 -5 -14 -4 -15
9 -4 21 18 19 3 -5 -27 -22 -28 -12 -58 22 -60 16 -2 17 1 8 12 -7 8 -17 12
-24 9 -6 -3 2 6 18 20 25 21 28 27 17 40 -12 15 -8 20 12 17 4 0 7 4 7 10 0 5
5 7 11 3 8 -4 7 -9 -2 -15 -10 -6 -10 -9 -2 -9 7 0 17 8 22 18 9 15 13 9 10
-14 0 -4 5 -11 13 -16 10 -7 9 -8 -5 -4 -15 5 -16 1 -12 -27 6 -30 5 -31 -9
-12 -12 17 -17 18 -28 7 -11 -11 -10 -16 5 -26 17 -13 17 -14 0 -21 -10 -5
-21 -8 -25 -7 -4 1 -5 -5 -1 -14 4 -11 9 -12 16 -5 6 6 16 11 22 11 5 0 3 -5
-5 -10 -8 -5 -10 -10 -3 -10 6 0 10 -8 8 -17 -1 -10 -8 -17 -15 -15 -6 1 -9
-2 -5 -8 3 -6 8 -23 10 -38 2 -15 2 -21 -1 -14 -6 13 -25 17 -23 5 3 -17 -1
-33 -8 -32 -21 3 -33 -2 -27 -12 4 -8 9 -7 16 2 6 10 7 7 3 -9 -5 -16 -3 -22
7 -20 21 5 16 -35 -6 -54 -21 -17 -21 -17 -1 -13 11 2 23 4 26 4 12 2 17 38 8
54 -6 10 -5 18 1 22 6 4 7 11 4 17 -5 8 -1 9 12 4 15 -6 16 -5 7 5 -9 9 -9 17
-1 33 6 12 11 22 10 24 -1 1 -2 3 -1 5 6 21 5 37 -3 37 -7 0 -7 5 1 13 8 10 7
17 -2 26 -9 10 -7 16 10 30 14 12 18 22 12 28 -6 6 -5 14 5 22 8 7 12 19 9 27
-3 8 1 14 8 14 19 1 -41 33 -64 35 -10 1 -22 -5 -27 -14z m-2 -55 c-2 0 -14
-10 -27 -21 -15 -12 -21 -14 -16 -5 15 26 30 38 38 33 5 -3 7 -6 5 -7z m45
-40 c4 -10 1 -13 -8 -9 -8 3 -12 9 -9 14 7 12 11 11 17 -5z m-26 -191 c0 -8
-4 -15 -9 -15 -10 0 -11 14 -1 23 9 10 10 9 10 -8z"/>
<path d="M260 9326 c13 -16 12 -20 -8 -36 -19 -15 -20 -20 -7 -30 8 -7 12 -17
8 -23 -3 -6 -1 -7 6 -3 9 6 9 11 0 22 -14 18 7 48 28 40 8 -3 11 -1 8 5 -4 5
-1 18 7 27 12 15 11 16 -4 3 -15 -11 -21 -11 -35 0 -17 13 -17 13 -3 -5z"/>
<path d="M183 9253 c4 -6 3 -14 -3 -18 -6 -4 -8 -10 -5 -15 3 -5 1 -12 -5 -15
-8 -5 -8 -11 0 -20 8 -10 6 -17 -10 -28 l-21 -14 21 -6 c11 -3 18 -1 15 3 -3
5 0 12 6 15 5 4 8 13 5 21 -5 12 -2 12 15 3 15 -8 19 -8 15 0 -4 6 -1 9 7 5 7
-2 14 -11 14 -19 0 -11 -5 -12 -21 -4 -20 10 -21 10 -2 -5 11 -9 25 -16 30
-16 6 0 4 -5 -4 -10 -8 -5 -10 -10 -5 -10 6 0 17 5 25 10 11 7 11 10 2 10 -7
0 -10 5 -7 10 3 6 1 10 -5 10 -6 0 -8 5 -5 11 4 6 13 8 21 5 8 -3 11 0 8 9 -3
8 -9 14 -12 13 -17 -2 -32 3 -31 10 3 18 -2 35 -8 29 -3 -4 -15 1 -26 10 -11
10 -17 13 -14 6z m44 -47 c0 -6 -13 -11 -28 -11 -17 -1 -25 3 -21 10 4 5 7 13
8 18 1 4 2 9 3 12 2 10 38 -18 38 -29z"/>
<path d="M193 9215 c0 -8 4 -12 9 -9 5 3 6 10 3 15 -9 13 -12 11 -12 -6z"/>
<path d="M150 9169 c0 -5 5 -7 10 -4 6 3 10 8 10 11 0 2 -4 4 -10 4 -5 0 -10
-5 -10 -11z"/>
<path d="M189 9158 c-6 -19 -3 -46 4 -41 6 3 7 1 3 -5 -4 -7 -2 -12 5 -12 8 0
6 -7 -5 -19 -10 -10 -25 -18 -34 -16 -23 3 -34 -4 -25 -18 12 -18 10 -121 -2
-130 -5 -5 1 -6 15 -2 22 5 23 4 9 -7 -9 -7 -14 -19 -12 -25 7 -19 21 -16 19
5 0 9 4 16 9 15 6 0 16 6 24 14 12 13 11 14 -8 8 -12 -4 -21 -2 -21 4 0 6 3
10 8 10 19 -3 33 2 27 11 -3 5 5 21 19 35 l24 24 -21 8 c-12 4 -25 6 -29 5 -5
-1 -8 3 -8 9 0 5 -4 8 -8 5 -4 -2 -14 -1 -21 3 -9 6 -10 11 -2 15 6 4 11 2 11
-5 0 -8 4 -8 15 1 9 7 18 10 22 6 3 -3 0 -6 -8 -6 -8 -1 -3 -7 11 -15 30 -17
40 -18 40 -5 0 6 -3 9 -7 9 -20 -3 -34 2 -28 10 3 5 1 13 -5 16 -15 9 7 35 29
35 14 0 14 2 1 10 -9 6 -17 5 -22 -3 -4 -7 -8 -8 -8 -1 0 5 4 14 10 20 6 6 3
14 -10 22 -11 7 -20 11 -21 10z m33 -155 c2 1 -4 -6 -15 -15 -10 -9 -18 -19
-17 -22 1 -21 -1 -28 -7 -23 -3 4 -12 2 -19 -4 -9 -7 -12 -6 -10 8 2 11 10 17
22 15 16 -2 16 0 -5 18 -13 11 -18 20 -12 20 6 0 11 5 11 11 0 5 -5 7 -12 3
-7 -4 -8 -3 -4 4 5 9 15 8 35 -3 16 -8 30 -13 33 -12z"/>
<path d="M175 9000 c-8 -13 9 -20 24 -11 10 6 9 10 -3 14 -8 3 -18 2 -21 -3z"/>
<path d="M143 9114 c0 -8 6 -13 13 -10 8 3 16 0 20 -6 4 -6 3 -8 -2 -5 -6 3
-16 2 -23 -2 -9 -6 -7 -10 8 -14 27 -7 36 8 19 30 -17 23 -35 26 -35 7z"/>
<path d="M224 8961 c-6 -3 -9 -13 -9 -21 1 -8 -5 -23 -13 -32 -12 -14 -12 -18
-2 -18 7 0 10 -3 7 -6 -4 -4 -14 -1 -24 7 -15 12 -16 12 -10 -4 4 -11 1 -20
-8 -23 -14 -6 -16 -37 -2 -50 3 -4 4 3 2 15 -2 12 0 19 5 16 12 -7 6 -35 -11
-45 -11 -8 11 -8 50 -1 2 1 -2 8 -9 16 -12 14 -7 20 14 16 5 -1 4 4 -2 11 -6
8 -7 19 -3 27 6 9 11 10 15 2 4 -6 13 -11 19 -11 8 0 8 3 -1 9 -11 7 -11 9 2
14 9 4 13 14 11 28 -3 13 0 28 6 36 7 7 10 13 8 14 -29 6 -38 6 -45 0z m26
-16 c-5 -6 -8 -21 -5 -34 2 -12 0 -19 -6 -16 -5 4 -9 1 -9 -6 0 -10 -3 -10
-11 -2 -8 8 -6 18 5 35 9 14 14 27 11 30 -3 2 2 5 10 5 10 0 12 -4 5 -12z
m-53 -90 c0 -17 -13 -20 -21 -6 -4 5 0 12 6 14 7 3 13 6 14 6 0 1 1 -6 1 -14z"/>
<path d="M200 8668 c0 -4 7 -9 15 -9 8 -1 20 -2 25 -3 6 -1 11 4 13 9 1 6 -10
10 -25 10 -16 1 -28 -3 -28 -7z"/>
<path d="M218 8635 c13 -9 26 -14 29 -11 8 8 3 12 -27 21 l-25 7 23 -17z"/>
<path d="M260 8625 c-7 -8 -20 -14 -29 -13 -10 2 -15 -3 -12 -12 2 -8 4 -25 4
-37 1 -26 7 -28 26 -10 11 10 11 8 0 -10 -7 -12 -17 -20 -21 -17 -4 3 -5 -2
-2 -11 4 -10 13 -14 23 -11 11 4 10 2 -3 -9 -11 -8 -15 -15 -9 -15 6 0 10 -8
8 -17 -1 -10 2 -24 8 -30 6 -9 6 -13 -3 -13 -8 0 -9 -4 -4 -12 5 -7 9 -25 8
-40 0 -16 3 -28 7 -28 4 0 6 17 4 37 -2 26 2 41 13 51 15 12 15 13 1 9 -12 -4
-15 1 -15 19 1 13 5 24 9 24 4 0 10 0 13 0 4 0 0 -7 -7 -17 -12 -14 -12 -16 1
-11 8 3 14 13 14 22 -2 22 3 20 17 -5 9 -17 8 -20 -3 -14 -15 7 10 -13 39 -32
17 -12 17 -12 -2 -6 -18 6 -18 5 -6 -10 11 -14 11 -20 0 -34 -12 -15 -12 -16
4 -10 11 4 20 1 24 -9 5 -13 7 -13 14 -2 5 8 9 9 9 2 0 -17 -27 -37 -39 -29
-7 4 -8 0 -5 -10 4 -9 9 -14 12 -11 2 3 17 -1 33 -9 19 -11 27 -21 24 -35 -2
-11 0 -20 6 -20 5 0 9 -4 9 -10 0 -5 -5 -9 -11 -7 -6 1 -14 -5 -16 -13 -4 -13
-3 -13 6 0 10 13 11 13 11 0 1 -9 6 -5 16 10 12 20 14 21 9 4 -4 -14 -1 -21
10 -21 9 0 14 6 11 14 -3 7 -2 12 2 10 4 -1 8 2 9 8 2 5 -3 10 -10 10 -18 0
-84 69 -79 83 2 7 8 9 14 6 6 -4 5 3 -2 15 -6 12 -16 18 -22 15 -7 -5 -9 -2
-5 9 3 9 2 19 -4 23 -7 4 -7 10 0 18 13 15 -5 37 -24 30 -15 -6 -25 18 -20 46
3 17 1 19 -9 11 -7 -6 -16 -7 -20 -3 -4 4 -13 7 -19 7 -6 0 -11 18 -11 40 -1
30 3 39 13 37 11 -2 12 0 4 10 -6 7 -9 21 -8 31 4 21 1 21 -15 2z m6 -17 c-6
-27 -19 -48 -29 -48 -6 0 -7 3 -4 6 3 4 2 16 -4 28 -10 20 -10 20 5 2 9 -11
17 -17 17 -13 1 4 3 12 4 17 1 6 3 12 4 15 3 11 9 4 7 -7z"/>
<path d="M297 8441 c2 -2 -3 -11 -9 -19 -15 -18 -19 -42 -7 -42 5 0 9 -5 9
-11 0 -5 -5 -7 -12 -3 -6 4 -8 3 -5 -4 8 -12 -2 -44 -12 -38 -4 3 -7 -4 -7
-14 0 -10 3 -17 7 -14 4 2 9 -3 13 -11 3 -8 12 -12 21 -9 16 6 12 19 -6 19 -5
0 -9 3 -9 8 0 4 0 10 0 13 0 4 6 1 14 -6 12 -9 15 -8 13 9 -1 13 -6 19 -14 17
-7 -3 -10 1 -6 10 4 11 9 12 19 3 8 -6 11 -15 8 -20 -3 -5 -1 -9 5 -9 10 0 9
-19 -2 -37 -5 -7 -4 -13 2 -13 5 0 12 4 16 10 8 12 35 1 32 -13 -1 -7 7 -11
18 -9 19 2 19 2 3 -11 -20 -16 -25 -32 -6 -21 7 5 8 3 3 -6 -6 -10 -11 -9 -22
5 -9 14 -13 15 -13 4 1 -20 30 -58 30 -38 0 12 2 12 11 -1 9 -12 10 -12 5 3
-3 11 -3 24 1 30 20 31 9 63 -19 58 -5 0 -8 4 -8 9 0 6 -3 9 -7 9 -23 -4 -31
4 -28 26 1 14 -2 28 -7 31 -5 3 -4 12 3 20 8 10 9 18 0 27 -6 8 -9 17 -6 20 3
4 2 5 -2 2 -3 -3 -11 1 -17 8 -6 7 -10 10 -9 8z m-3 -33 c-5 -8 -2 -9 9 -5 20
8 34 -12 16 -23 -10 -7 -10 -12 2 -26 9 -11 9 -15 1 -10 -17 10 -43 62 -35 70
10 10 15 7 7 -6z"/>
<path d="M350 8345 c0 -8 4 -15 10 -15 5 0 7 7 4 15 -4 8 -8 15 -10 15 -2 0
-4 -7 -4 -15z"/>
<path d="M339 8279 c0 -2 -2 -12 -4 -21 -2 -11 3 -16 15 -15 15 1 17 4 7 17
-6 8 -13 17 -14 19 -2 2 -3 2 -4 0z"/>
<path d="M276 8253 c12 -9 13 -13 4 -13 -10 0 -9 -5 3 -18 10 -10 14 -23 10
-27 -5 -5 -1 -4 8 3 9 6 18 9 21 6 3 -2 8 2 11 10 4 9 2 18 -4 21 -5 4 -7 11
-4 16 7 10 4 11 -38 13 -26 2 -27 1 -11 -11z m40 -11 c10 -15 8 -18 -7 -19
-12 -1 -17 5 -16 18 2 24 9 24 23 1z"/>
<path d="M336 8201 c-4 -6 -12 -9 -17 -6 -5 4 -9 1 -9 -5 0 -7 6 -10 14 -7 23
9 36 -12 25 -41 -8 -22 -8 -23 6 -12 8 7 13 16 10 20 -3 4 1 10 9 13 11 5 12
0 2 -24 -9 -24 -8 -32 4 -39 8 -5 18 -6 22 -4 12 7 10 24 -3 24 -5 0 -7 -5 -3
-12 4 -6 3 -8 -4 -4 -6 3 -9 16 -7 28 5 23 24 40 37 32 4 -3 8 0 8 6 0 6 5 8
11 4 6 -3 7 -9 3 -13 -18 -13 -14 -37 7 -38 15 -1 18 2 11 10 -16 20 -11 49 7
41 28 -11 61 -13 61 -2 0 6 -6 8 -14 5 -8 -3 -19 0 -25 7 -8 9 -7 13 4 13 8 0
11 -5 8 -11 -4 -6 1 -5 10 3 9 7 17 14 17 16 0 5 -46 -1 -57 -8 -7 -5 -13 -5
-13 0 0 4 -5 1 -10 -7 -9 -13 -10 -13 -10 0 0 13 -1 13 -10 0 -9 -13 -10 -13
-10 0 -1 12 -2 12 -10 -2 -12 -20 -36 -18 -53 7 -10 13 -16 15 -21 6z"/>
<path d="M549 8183 c-1 -5 -1 -11 0 -15 1 -8 -15 -12 -31 -9 -5 0 -8 -4 -8 -9
0 -6 -8 -5 -20 2 -23 15 -38 4 -21 -15 9 -11 8 -17 -4 -27 -12 -10 -15 -10
-15 0 0 8 -3 10 -7 7 -7 -8 -33 11 -33 25 0 5 5 6 12 2 7 -4 8 -3 4 5 -6 9
-11 9 -23 0 -12 -11 -12 -14 2 -21 9 -6 14 -17 11 -26 -3 -9 -1 -24 4 -32 6
-10 10 -11 10 -2 0 6 5 12 10 12 12 0 9 -22 -5 -32 -6 -5 -3 -8 6 -8 8 0 24
-8 35 -18 28 -25 93 -25 67 1 -3 4 -12 2 -20 -5 -8 -6 -13 -7 -12 -2 4 21 -2
35 -11 29 -6 -4 -8 -11 -5 -16 3 -5 -1 -6 -10 -2 -12 4 -13 8 -5 13 9 5 5 10
-10 15 -15 5 -19 10 -10 15 8 5 7 9 -5 14 -9 3 -22 3 -27 -1 -6 -3 -8 -1 -4 5
7 12 46 12 46 1 0 -4 7 -6 15 -5 17 2 33 16 19 16 -5 0 -10 9 -11 20 -1 11 2
18 8 15 5 -4 9 -14 9 -23 0 -14 2 -15 10 -2 6 9 5 17 -3 23 -8 6 -7 7 3 4 8
-2 14 -10 12 -16 -1 -7 2 -10 8 -6 6 4 9 14 8 22 -2 9 3 18 10 20 6 3 12 0 12
-7 0 -6 -5 -8 -11 -4 -7 4 -7 -1 1 -16 10 -18 9 -21 -1 -15 -8 6 -10 4 -4 -5
6 -9 4 -11 -5 -5 -9 5 -11 4 -6 -4 4 -6 12 -9 17 -6 5 4 9 1 9 -4 0 -6 -4 -11
-10 -11 -5 0 -10 -5 -10 -11 0 -8 6 -7 18 2 14 12 14 11 -2 -8 -18 -22 -18
-22 3 -20 12 1 19 7 17 13 -3 7 3 10 15 7 25 -7 37 -25 14 -21 -10 2 -20 -4
-22 -12 -4 -13 -3 -13 6 0 7 9 11 10 11 3 0 -6 -4 -15 -10 -18 -5 -3 -10 -14
-10 -23 0 -14 2 -13 13 3 11 14 16 15 22 5 5 -9 4 -11 -3 -6 -7 4 -12 2 -12
-3 0 -12 2 -13 41 -15 18 -1 25 2 22 11 -3 7 -8 11 -12 9 -4 -3 -13 0 -21 5
-13 8 -13 10 0 20 12 9 11 10 -5 5 -18 -5 -18 -5 -3 7 15 12 15 14 -3 25 -12
8 -17 18 -12 25 5 8 2 8 -9 -1 -19 -15 -31 -2 -22 22 3 9 1 16 -5 16 -6 0 -11
5 -11 11 0 5 5 7 11 3 8 -4 8 0 0 15 -7 11 -16 21 -22 21 -6 0 -7 5 -4 10 3 6
4 10 1 10 -3 0 -7 -3 -7 -7z"/>
<path d="M323 8172 c-8 -5 -7 -11 2 -19 10 -10 14 -9 19 2 6 17 -5 26 -21 17z"/>
<path d="M506 8078 c-9 -12 -16 -17 -16 -10 0 7 -5 10 -11 6 -16 -9 9 -23 34
-19 13 3 17 0 13 -11 -3 -8 -2 -13 3 -10 12 8 34 -21 26 -34 -3 -6 -10 -8 -14
-6 -4 3 -12 1 -19 -3 -9 -5 -4 -12 15 -22 16 -8 32 -18 36 -24 5 -6 6 -2 3 8
-3 11 -2 16 4 12 6 -3 10 -13 10 -21 0 -8 5 -12 11 -9 6 4 8 14 5 24 -5 12 -2
11 9 -3 8 -11 15 -16 15 -12 0 5 7 2 16 -5 14 -11 18 -10 31 6 14 19 14 19 11
1 -2 -10 2 -21 9 -23 7 -3 10 5 9 22 -3 21 -1 23 11 13 11 -9 11 -13 1 -20 -8
-5 1 -6 22 -3 27 4 31 3 18 -5 -10 -6 -18 -16 -18 -22 0 -6 7 -5 18 3 9 7 14
9 9 4 -4 -4 1 -17 10 -28 10 -11 12 -17 6 -13 -7 4 -13 3 -13 -2 0 -11 60 -38
73 -34 5 1 6 -2 2 -7 -5 -10 -42 1 -70 20 -5 3 -18 5 -28 4 -9 -2 -14 1 -11 7
3 5 -2 19 -13 30 -10 12 -12 18 -5 14 6 -4 12 -2 12 4 0 7 -6 10 -12 7 -7 -2
-12 -12 -10 -22 2 -10 -1 -14 -7 -10 -6 3 -11 14 -11 23 0 13 -2 14 -9 3 -7
-11 -9 -11 -13 0 -3 8 -9 10 -14 5 -5 -5 -3 -11 5 -14 7 -2 22 -13 32 -23 11
-11 19 -14 19 -7 0 6 3 8 8 4 4 -4 7 -12 7 -18 0 -6 10 -13 22 -14 13 -2 32
-13 43 -24 11 -11 25 -20 31 -20 5 0 7 -4 4 -10 -6 -9 8 -15 29 -11 5 1 6 -6
2 -15 -5 -13 -4 -14 7 -6 8 7 17 9 20 5 4 -3 7 -1 7 6 0 7 5 9 11 5 8 -4 7 -9
-2 -16 -10 -6 -7 -7 9 -3 14 4 22 2 22 -5 0 -7 7 -9 16 -6 9 3 12 2 9 -5 -4
-6 -13 -8 -20 -5 -7 2 -18 -1 -25 -7 -10 -9 -11 -9 -6 1 4 6 2 12 -3 12 -6 0
-11 -7 -11 -16 0 -10 6 -14 15 -11 8 4 17 2 20 -3 4 -6 0 -10 -7 -10 -8 0 -6
-5 5 -11 9 -6 14 -16 11 -22 -4 -7 -4 -9 1 -5 5 5 15 -1 22 -12 8 -11 19 -17
25 -14 6 4 8 -1 3 -15 -5 -15 -2 -21 9 -21 9 0 16 -9 16 -21 0 -11 4 -18 10
-14 6 4 5 15 -2 30 -6 13 -14 23 -17 20 -4 -2 -7 5 -7 16 0 18 2 19 12 4 11
-14 12 -14 18 1 8 22 8 26 -3 19 -6 -3 -14 3 -20 12 -9 16 -10 16 -11 1 0 -9
-5 -20 -12 -24 -8 -5 -9 -2 -5 9 3 9 2 19 -4 22 -5 4 -6 11 -3 17 4 6 3 8 -2
5 -5 -3 -10 3 -10 13 0 28 48 9 52 -21 1 -5 2 -13 3 -19 0 -6 4 -9 9 -9 17 3
35 -2 29 -7 -3 -4 -2 -16 4 -27 8 -14 8 -18 0 -13 -6 4 -14 0 -18 -9 -3 -10 0
-21 8 -26 9 -5 9 -9 2 -9 -9 0 -10 -7 -4 -39 1 -2 8 2 17 10 13 11 15 11 14
-2 -5 -29 1 -36 28 -35 15 1 34 -4 42 -11 13 -10 16 -9 17 7 1 10 -6 25 -15
32 -13 11 -15 11 -10 -3 6 -15 -2 -17 -55 -10 -5 1 -5 6 -1 12 4 8 9 7 15 -2
5 -8 9 -9 9 -4 0 19 -15 32 -33 29 -12 -1 -17 2 -14 11 3 7 0 18 -6 24 -8 8
-5 9 11 6 30 -5 43 -15 37 -25 -3 -5 4 -8 15 -7 25 2 25 6 3 24 -10 8 -12 11
-4 7 10 -5 12 -3 7 7 -4 8 1 3 12 -11 13 -15 17 -27 10 -31 -7 -4 -7 -9 1 -13
10 -6 15 6 12 27 0 4 4 7 10 7 6 0 8 -9 3 -22 -6 -21 -5 -22 11 -8 12 9 16 10
11 2 -4 -8 -3 -11 5 -10 6 2 14 -4 16 -12 3 -9 1 -11 -4 -5 -12 15 -36 18 -27
4 5 -8 3 -9 -5 -4 -10 6 -11 3 -1 -14 10 -19 14 -20 28 -9 9 7 20 17 24 22 8
11 -1 38 -11 32 -4 -3 -23 10 -42 27 -36 34 -42 35 -73 22 -12 -5 -21 -3 -26
6 -10 14 -3 32 9 25 4 -3 8 1 8 9 0 8 -3 14 -6 13 -20 -2 -31 4 -29 15 2 7 -6
11 -19 10 -17 -2 -21 2 -19 22 2 13 0 23 -4 22 -4 -1 -29 14 -56 33 -27 19
-58 35 -69 35 -12 0 -20 7 -20 17 0 16 -54 74 -67 71 -3 -1 -9 4 -12 12 -3 10
0 12 12 9 9 -3 7 1 -6 8 -12 8 -20 17 -16 20 5 6 -33 32 -48 33 -4 0 -17 8
-28 18 -19 16 -21 16 -18 1 3 -19 -46 -31 -65 -16 -7 5 -27 8 -44 7 -18 -1
-30 1 -27 4 3 3 11 6 17 6 7 0 11 9 9 19 -2 11 1 15 7 11 7 -4 8 0 4 10 -4 12
-8 13 -13 5 -10 -16 -25 7 -25 39 -1 33 -20 37 -39 9z m24 -3 c-7 -9 -15 -13
-19 -10 -3 3 1 10 9 15 21 14 24 12 10 -5z m140 -125 c0 -5 -5 -10 -11 -10 -5
0 -7 5 -4 10 3 6 8 10 11 10 2 0 4 -4 4 -10z m143 -84 c4 -10 1 -13 -8 -9 -8
3 -12 9 -9 14 7 12 11 11 17 -5z m7 -46 c9 -6 20 -5 29 3 12 10 13 9 7 -1 -4
-7 -3 -19 3 -26 8 -9 7 -13 -4 -13 -8 0 -13 3 -10 6 3 3 -9 13 -27 23 -18 9
-28 17 -23 17 6 1 17 -3 25 -9z m127 -114 c-3 -6 3 -20 12 -31 16 -20 16 -20
-7 -1 -12 11 -20 21 -17 24 3 3 0 11 -7 19 -8 11 -7 12 6 7 9 -4 15 -12 13
-18z m253 -190 c0 -3 -4 -8 -10 -11 -5 -3 -10 -1 -10 4 0 6 5 11 10 11 6 0 10
-2 10 -4z"/>
<path d="M18815 8019 c-4 -6 -5 -12 -2 -15 2 -3 7 2 10 11 7 17 1 20 -8 4z"/>
<path d="M610 7929 c0 -5 5 -9 10 -9 6 0 12 0 15 0 14 0 8 13 -7 16 -10 1 -18
-2 -18 -7z"/>
<path d="M743 7879 c11 -17 14 -16 20 7 1 4 -6 8 -15 10 -14 2 -15 -1 -5 -17z"/>
<path d="M870 7744 c0 -8 5 -12 10 -9 6 4 8 11 5 16 -9 14 -15 11 -15 -7z"/>
<path d="M973 7701 c1 -22 12 -28 21 -12 3 5 -1 14 -9 21 -11 9 -14 8 -12 -9z"/>
<path d="M8045 7640 c3 -5 8 -10 11 -10 2 0 4 5 4 10 0 6 -5 10 -11 10 -5 0
-7 -4 -4 -10z"/>
<path d="M1026 7623 c-6 -14 -5 -15 5 -6 7 7 10 15 7 18 -3 3 -9 -2 -12 -12z"/>
<path d="M11540 7629 c0 -5 5 -7 10 -4 6 3 10 8 10 11 0 2 -4 4 -10 4 -5 0
-10 -5 -10 -11z"/>
<path d="M1067 7575 c3 -8 9 -12 14 -9 12 7 11 11 -5 17 -10 4 -13 1 -9 -8z"/>
<path d="M1106 7552 c-2 -4 -1 -14 3 -21 6 -10 10 -9 14 3 6 16 -8 32 -17 18z"/>
<path d="M7825 7290 c-3 -5 1 -10 9 -10 9 0 16 5 16 10 0 6 -4 10 -9 10 -6 0
-13 -4 -16 -10z"/>
<path d="M11101 6553 c-5 -10 -13 -17 -18 -16 -18 6 -43 -9 -43 -25 0 -13 3
-13 16 4 8 10 13 12 9 4 -4 -8 1 -6 9 4 11 13 16 15 16 6 0 -9 6 -8 20 5 11
10 21 15 21 12 1 -4 2 -10 3 -14 3 -16 18 -33 29 -33 8 0 8 3 -1 12 -15 15
-15 28 -1 28 5 0 7 -4 4 -10 -4 -6 1 -7 12 -4 15 5 16 4 3 -5 -8 -6 -13 -11
-10 -12 3 0 13 -2 23 -4 30 -6 18 22 -15 36 -18 8 -35 14 -38 14 -3 0 -10 4
-17 8 -7 4 -16 0 -22 -10z"/>
<path d="M11112 6528 c-7 -7 -16 -13 -20 -13 -4 -1 -17 -6 -30 -13 -19 -11
-23 -10 -28 3 -5 12 -9 11 -23 -8 -18 -24 -27 -77 -12 -77 5 0 12 7 15 16 4
10 2 13 -7 9 -6 -4 -4 0 6 8 10 9 17 17 15 20 -2 3 1 9 6 14 5 4 6 3 2 -4 -3
-6 -2 -14 3 -17 5 -3 12 1 15 9 5 13 10 14 27 5 19 -11 20 -10 9 10 -11 21
-11 21 18 6 16 -8 33 -12 36 -8 4 3 4 -2 0 -13 -7 -18 -6 -18 9 -6 14 11 17
11 17 0 0 -8 6 -5 15 7 13 16 14 16 9 2 -4 -11 -1 -18 6 -18 6 0 9 4 5 9 -3 5
-1 12 4 16 6 3 8 -6 5 -21 -4 -24 -3 -26 11 -14 8 7 18 10 22 6 3 -3 1 -6 -6
-6 -8 0 -9 -5 -1 -19 14 -27 13 -34 -4 -28 -10 4 -13 1 -9 -8 3 -8 10 -12 17
-8 6 3 3 -3 -6 -14 -20 -22 -24 -38 -6 -27 7 4 8 3 4 -5 -4 -6 -12 -9 -17 -6
-5 4 -9 1 -9 -5 0 -6 -5 -8 -11 -4 -8 4 -7 9 2 15 7 4 11 10 9 13 -3 2 -16 -4
-30 -15 -21 -16 -21 -18 -5 -13 15 4 16 3 6 -4 -7 -5 -11 -14 -8 -19 3 -5 0
-10 -7 -10 -8 0 -12 7 -9 16 4 14 4 14 -6 1 -6 -8 -11 -11 -11 -7 0 4 -9 3
-19 -2 -15 -8 -22 -6 -35 12 -9 12 -14 16 -10 8 5 -9 3 -12 -4 -7 -7 4 -20 2
-29 -3 -17 -10 -16 -11 2 -12 11 -1 26 -1 34 0 8 2 10 -3 5 -11 -4 -7 -4 -10
0 -6 5 4 19 3 32 -2 19 -8 22 -6 17 6 -5 14 -3 14 14 3 17 -10 25 -8 55 14 19
15 38 24 42 19 4 -4 7 -2 6 3 -1 6 -1 12 0 15 1 3 3 14 5 25 2 11 6 34 9 50 5
21 4 26 -3 15 -7 -11 -10 -7 -10 15 -2 53 -4 64 -13 59 -4 -3 -8 1 -8 8 0 10
-3 9 -10 -2 -5 -8 -21 -15 -37 -16 -29 -2 -66 22 -57 37 8 13 0 11 -14 -3z
m18 -23 c11 -13 10 -14 -4 -9 -9 3 -16 10 -16 15 0 13 6 11 20 -6z m-112 -25
c-7 -10 -14 -17 -17 -15 -4 4 18 35 25 35 2 0 -1 -9 -8 -20z m220 -5 c-3 -3
-9 2 -12 12 -6 14 -5 15 5 6 7 -7 10 -15 7 -18z"/>
<path d="M8213 6487 c-3 -5 -12 -6 -20 -3 -9 4 -11 2 -7 -6 5 -8 2 -9 -9 -5
-10 4 -16 2 -14 -6 1 -7 -4 -11 -11 -9 -8 1 -11 -2 -7 -8 3 -6 -1 -17 -9 -25
-8 -9 -12 -23 -9 -32 5 -12 3 -14 -8 -8 -8 4 -11 5 -7 0 4 -4 3 -14 -4 -22 -6
-8 -7 -13 -2 -12 21 4 28 -2 14 -11 -9 -6 -11 -10 -3 -10 7 0 10 -6 7 -14 -6
-17 12 -31 21 -16 4 6 11 8 16 5 5 -4 9 -2 9 4 0 18 -19 22 -28 4 -8 -13 -10
-10 -9 15 1 18 6 32 12 32 5 0 3 5 -5 10 -13 9 -13 10 0 11 8 1 18 1 23 0 4 0
7 4 7 10 0 6 -6 9 -13 6 -8 -3 -14 1 -14 8 0 7 6 11 13 8 6 -2 15 0 19 6 4 7
-1 9 -12 5 -10 -3 -7 2 7 10 16 10 19 15 10 16 -13 0 -13 2 0 9 8 6 18 7 22 5
4 -3 8 -1 8 4 0 5 7 9 15 9 8 0 12 -4 9 -9 -3 -4 0 -8 5 -8 6 0 11 6 11 13 0
8 4 7 10 -3 16 -24 12 -32 -12 -24 -13 3 -20 3 -16 -1 4 -4 19 -9 33 -10 21
-3 23 -1 15 15 -13 24 -13 30 2 30 6 0 9 -3 5 -6 -9 -9 21 -64 36 -64 9 0 9 2
-1 8 -7 5 -15 22 -18 38 -3 21 -2 25 5 14 5 -8 7 -18 4 -24 -4 -5 -1 -6 7 -1
9 6 11 4 5 -5 -6 -9 -4 -11 5 -5 9 6 11 4 5 -6 -7 -11 -5 -11 10 1 10 8 16 10
12 3 -4 -6 -2 -15 4 -19 8 -4 7 -9 -2 -16 -11 -8 -10 -9 3 -5 12 4 16 1 13
-14 -2 -10 1 -19 6 -19 6 0 7 -5 3 -11 -5 -8 -9 -8 -14 1 -5 8 -9 6 -14 -6 -4
-11 -2 -20 3 -22 18 -6 12 -20 -6 -17 -10 1 -25 -4 -35 -12 -11 -10 -18 -11
-23 -4 -3 6 -12 11 -18 11 -7 0 -3 -8 8 -16 19 -15 19 -16 2 -29 -13 -9 -15
-14 -5 -18 7 -2 -1 -4 -19 -3 -17 0 -29 5 -26 9 3 5 -5 4 -17 -3 -18 -10 -21
-9 -15 1 6 8 4 10 -6 5 -8 -4 -6 -1 4 7 12 10 15 17 7 22 -6 4 -18 1 -27 -7
-12 -9 -15 -9 -9 -1 5 9 2 11 -11 7 -14 -4 -15 -3 -4 4 8 6 9 12 3 16 -5 3
-13 -1 -16 -10 -8 -21 -8 -24 5 -24 7 0 19 -8 28 -18 9 -11 25 -20 36 -21 41
-3 79 0 85 7 3 4 12 7 20 7 8 0 14 6 13 13 -2 6 3 12 11 12 8 0 18 5 21 11 9
13 -27 8 -37 -6 -4 -5 -10 -6 -15 -2 -9 9 17 28 29 21 4 -3 8 -1 8 5 0 6 6 8
14 5 23 -9 37 66 20 106 -4 8 -8 21 -10 28 -1 8 -4 15 -6 16 -2 1 -16 12 -32
24 -15 12 -32 19 -37 16 -5 -3 -9 0 -9 7 0 8 -4 8 -15 -1 -8 -7 -15 -8 -15 -3
0 11 -40 12 -47 0z m128 -34 c13 -16 12 -17 -3 -4 -10 7 -18 15 -18 17 0 8 8
3 21 -13z m49 -119 c0 -8 -19 -13 -24 -6 -3 5 1 9 9 9 8 0 15 -2 15 -3z m-60
-89 c0 -2 -9 -3 -19 -2 -11 0 -18 5 -15 9 4 6 34 0 34 -7z"/>
<path d="M11103 6478 c1 -5 -6 -12 -15 -13 -10 -2 -18 2 -18 8 0 7 -5 4 -11
-6 -6 -9 -14 -15 -20 -12 -8 6 -13 -8 -10 -27 0 -5 -3 -8 -8 -8 -5 0 -17 -7
-26 -16 -15 -16 -15 -19 8 -40 14 -13 27 -29 29 -36 4 -11 8 -11 21 0 14 12
19 11 37 -1 11 -7 17 -17 12 -22 -4 -4 8 0 26 9 18 9 36 24 39 31 3 8 9 13 13
10 5 -3 11 -1 15 5 4 6 10 8 15 5 16 -10 20 13 5 29 -16 15 -4 33 15 21 6 -3
7 1 4 9 -3 9 -10 14 -14 11 -4 -3 -13 2 -19 9 -7 8 -23 13 -37 11 -14 -1 -28
3 -31 11 -6 16 -34 27 -30 12z m-22 -28 c0 11 2 11 6 2 4 -10 8 -10 19 -1 10
8 18 8 27 0 8 -6 23 -9 35 -6 15 2 19 0 15 -11 -4 -10 0 -13 13 -8 18 5 18 5
1 -6 -16 -11 -16 -13 5 -31 13 -11 19 -19 13 -18 -5 1 -13 0 -17 -1 -13 -4
-27 -7 -39 -9 -5 0 -8 -5 -4 -10 3 -5 0 -13 -6 -17 -7 -4 -9 -3 -5 4 3 6 2 13
-4 17 -5 3 -10 1 -10 -5 0 -6 -4 -9 -9 -5 -5 3 -12 1 -16 -5 -4 -6 -11 -8 -16
-4 -5 3 -7 10 -4 15 10 15 -12 10 -25 -6 -7 -9 -16 -13 -19 -9 -6 5 -7 9 -10
35 0 5 -5 8 -9 5 -4 -2 -14 -1 -21 4 -10 6 -7 12 14 26 23 15 28 15 36 3 5 -8
9 -12 10 -9 0 3 2 13 4 23 3 14 -1 16 -18 11 -22 -6 -22 -6 -2 9 15 11 22 12
27 4 5 -8 8 -7 9 3z"/>
<path d="M11105 6440 c-3 -5 -3 -16 1 -22 4 -7 3 -10 -1 -5 -5 4 -19 0 -31 -8
-13 -9 -25 -11 -29 -5 -7 11 -35 2 -35 -12 0 -5 4 -7 9 -3 13 7 33 -29 23 -41
-4 -5 3 -1 15 10 22 19 49 14 36 -7 -4 -8 -1 -8 9 1 14 11 29 16 75 26 7 1 16
6 20 11 4 4 2 5 -4 1 -7 -4 -14 -2 -14 3 -1 6 -3 16 -4 21 -1 6 -3 15 -4 21 0
5 -6 7 -12 3 -8 -4 -7 -9 2 -15 11 -7 11 -9 -1 -9 -12 0 -12 -2 -1 -9 9 -6 10
-11 2 -15 -6 -4 -11 -3 -11 2 0 5 -6 9 -14 9 -8 0 -12 -6 -9 -14 3 -7 0 -13
-7 -13 -6 0 -9 4 -6 9 3 4 -6 7 -19 5 -14 -1 -25 2 -25 7 0 6 6 9 13 8 30 -4
38 2 32 21 -4 11 -2 20 4 20 6 0 10 -3 10 -7 -3 -20 2 -34 11 -28 7 4 7 13 0
26 -12 21 -25 25 -35 9z m-42 -73 c-3 -4 -6 -7 -7 -5 -1 2 -8 12 -16 22 -14
18 -14 18 7 6 12 -8 19 -18 16 -23z"/>
<path d="M11075 6430 c-3 -5 -1 -10 4 -10 6 0 11 5 11 10 0 6 -2 10 -4 10 -3
0 -8 -4 -11 -10z"/>
<path d="M8195 6452 c2 -3 -1 -14 -7 -26 -7 -11 -12 -28 -13 -36 0 -8 -7 -13
-15 -12 -8 2 -12 0 -8 -3 4 -4 3 -17 -3 -28 -7 -11 -7 -17 -1 -13 12 7 34 -17
30 -35 -2 -8 3 -13 11 -11 18 4 42 -18 34 -32 -3 -6 -3 -8 2 -4 4 4 14 3 21
-3 10 -9 15 -7 20 5 3 9 11 13 18 9 6 -3 4 2 -5 13 -23 26 -13 51 11 29 15
-14 18 -14 30 0 7 8 17 12 23 8 6 -3 7 -1 3 6 -4 6 -1 23 8 36 13 20 13 24 1
29 -9 3 -12 12 -8 23 6 16 5 16 -9 5 -14 -11 -21 -11 -40 1 -13 7 -33 13 -45
12 -21 -2 -27 6 -24 27 0 4 -8 6 -19 5 -10 -1 -17 -3 -15 -5z m73 -40 c13 11
14 11 7 -1 -6 -11 -4 -13 9 -8 10 4 19 1 23 -9 3 -8 12 -13 19 -10 20 8 27
-11 13 -36 -21 -40 -32 -47 -46 -29 -12 15 -14 14 -28 -3 -11 -15 -12 -23 -3
-35 10 -13 10 -14 -2 -3 -24 21 -34 13 -14 -10 10 -13 -2 -3 -28 21 -30 28
-44 49 -40 59 4 11 2 13 -9 7 -8 -4 0 7 16 25 24 27 26 32 10 27 -18 -7 -19
-6 -3 6 10 8 14 18 10 22 -4 5 6 -1 22 -13 24 -18 32 -20 44 -10z"/>
<path d="M8214 6413 c4 -6 -2 -20 -11 -30 -24 -24 -22 -44 4 -72 l21 -22 25
27 c21 22 29 25 40 16 15 -13 28 -4 40 30 4 12 2 15 -8 11 -8 -3 -18 2 -21 11
-3 9 -10 13 -15 10 -5 -3 -4 -14 2 -25 6 -12 8 -23 5 -27 -3 -3 -6 0 -6 7 0 7
-4 9 -10 6 -5 -3 -10 -1 -10 5 0 6 -5 8 -11 5 -6 -4 -8 -14 -5 -22 4 -8 1 -11
-5 -8 -6 4 -8 13 -5 21 6 17 -10 19 -20 2 -4 -6 0 -16 8 -22 14 -10 14 -13 0
-26 -14 -13 -15 -12 -9 3 5 12 3 16 -5 11 -7 -4 -8 -3 -4 4 5 8 1 10 -11 6
-15 -5 -16 -4 -3 5 13 10 13 12 0 22 -13 9 -12 10 3 5 12 -4 16 -2 11 6 -5 7
-3 8 6 3 9 -5 11 -4 6 3 -5 8 -2 10 8 6 10 -4 16 -1 16 7 0 7 -3 9 -7 6 -3 -4
-12 1 -20 11 -8 9 -12 12 -9 5z m100 -73 c-6 -6 -10 -3 -10 10 0 13 4 16 10
10 7 -7 7 -13 0 -20z"/>
<path d="M8257 6387 c-3 -8 1 -14 8 -14 7 0 11 6 8 14 -3 7 -6 13 -8 13 -2 0
-5 -6 -8 -13z"/>
<path d="M5590 5814 c0 -8 5 -12 10 -9 6 4 8 11 5 16 -9 14 -15 11 -15 -7z"/>
<path d="M15875 5810 c-12 -13 -23 -17 -34 -11 -31 15 -80 6 -97 -17 -10 -14
-22 -21 -31 -17 -13 4 -14 3 -3 -10 11 -14 14 -13 26 2 7 10 14 14 14 9 0 -5
7 -3 15 4 8 7 15 9 15 6 0 -4 9 -2 19 4 15 8 22 7 28 -5 8 -13 12 -13 30 4 11
11 24 17 27 14 3 -4 6 1 6 11 0 10 5 14 12 10 7 -4 8 -3 4 4 -9 16 -10 15 -31
-8z m-114 -33 c-10 -9 -11 -8 -5 6 3 10 9 15 12 12 3 -3 0 -11 -7 -18z m84 5
c-3 -3 -11 0 -18 7 -9 10 -8 11 6 5 10 -3 15 -9 12 -12z"/>
<path d="M3596 5751 c-4 -6 -1 -11 6 -11 8 0 9 -3 3 -8 -5 -4 -11 -13 -13 -20
-2 -9 3 -10 15 -3 10 5 22 11 28 13 5 1 11 12 13 23 3 19 2 19 -11 1 -14 -18
-15 -19 -24 -1 -7 12 -13 14 -17 6z"/>
<path d="M3780 5749 c0 -5 -8 -6 -17 -3 -11 4 -14 2 -7 -3 7 -5 4 -14 -8 -25
-10 -10 -18 -14 -18 -9 0 5 -6 11 -14 14 -8 3 -13 -1 -12 -11 1 -12 -6 -16
-21 -14 -12 2 -24 -1 -27 -6 -7 -11 34 -9 53 2 10 6 20 2 32 -13 10 -12 23
-20 29 -16 5 3 7 0 4 -8 -7 -19 20 -29 48 -18 13 4 35 5 50 0 19 -5 31 -3 39
7 9 12 14 12 20 3 6 -10 11 -10 23 0 11 9 16 10 16 2 0 -6 5 -11 11 -11 5 0 7
5 4 10 -3 6 3 10 14 10 12 0 21 6 21 13 0 9 3 8 9 -2 6 -9 11 -10 15 -2 4 6
12 9 17 6 5 -4 9 -2 9 4 0 5 -12 8 -27 7 -16 -2 -32 -1 -38 2 -15 9 -45 9 -39
0 3 -4 0 -8 -6 -8 -6 0 -9 -4 -5 -9 3 -5 0 -13 -6 -17 -7 -4 -9 -3 -5 4 4 7
-1 10 -14 7 -11 -2 -20 2 -20 8 0 7 -4 6 -10 -3 -6 -9 -25 -15 -49 -15 -21 0
-37 4 -34 8 3 5 -5 4 -17 -3 -15 -8 -20 -8 -16 -1 4 6 4 17 0 23 -11 17 -12
48 -3 54 5 3 17 -4 28 -15 11 -11 22 -15 25 -10 2 5 3 4 2 -3 -2 -7 -8 -14
-14 -14 -7 -1 -17 -2 -23 -3 -21 -2 1 -18 23 -16 13 1 26 -3 31 -9 4 -6 5 2 3
18 -5 27 -26 61 -26 42 0 -5 -7 -3 -15 4 -8 7 -13 16 -10 19 2 4 -2 8 -10 8
-8 0 -15 -4 -15 -8z m-10 -39 c0 -5 -6 -10 -12 -11 -10 0 -10 -2 0 -6 6 -2 12
-9 12 -15 0 -7 -5 -6 -14 2 -8 6 -12 18 -9 26 6 16 23 19 23 4z m236 -32 c4
-7 4 -10 -1 -6 -4 4 -14 3 -22 -3 -8 -8 -13 -8 -13 -1 0 6 6 13 13 15 6 3 13
6 14 6 1 1 5 -5 9 -11z"/>
<path d="M3784 5710 c0 -10 6 -16 13 -13 7 3 13 9 13 13 0 4 -6 10 -13 13 -7
3 -13 -3 -13 -13z"/>
<path d="M3866 5722 c-2 -4 -3 -17 -1 -28 2 -10 4 -22 4 -26 1 -5 6 -8 12 -8
5 0 8 4 5 9 -9 13 16 20 36 10 20 -11 35 8 19 24 -6 6 -11 7 -11 3 0 -5 -7 -3
-15 4 -8 7 -15 9 -15 5 0 -4 -6 -2 -14 4 -8 7 -17 8 -20 3z m36 -17 c3 0 9 -3
13 -7 4 -3 0 -5 -9 -4 -9 1 -22 8 -29 16 -10 10 -9 11 3 4 8 -5 18 -9 22 -9z"/>
</g>
</svg>
